<?xml version="1.0" standalone="no"?>
<!DOCTYPE svg PUBLIC "-//W3C//DTD SVG 20010904//EN"
 "http://www.w3.org/TR/2001/REC-SVG-20010904/DTD/svg10.dtd">
<svg version="1.0" xmlns="http://www.w3.org/2000/svg"
 width="196.000000pt" height="196.000000pt" viewBox="0 0 196.000000 196.000000"
 preserveAspectRatio="xMidYMid meet">
<metadata>
Created by potrace 1.11, written by Peter Selinger 2001-2013
</metadata>
<g transform="translate(0.000000,196.000000) scale(0.100000,-0.100000)"
fill="#000000" stroke="none">
<path d="M855 1938 c-314 -41 -595 -242 -740 -528 -72 -143 -99 -268 -98 -450
3 -252 99 -478 282 -661 121 -121 226 -185 391 -239 434 -142 921 55 1139 462
40 74 76 162 85 208 27 137 32 178 30 265 0 55 -4 114 -8 130 -3 17 -9 42 -11
56 -40 220 -203 463 -401 597 -51 34 -199 113 -207 110 -1 -1 -24 6 -52 15
-27 9 -61 18 -75 21 -14 2 -42 7 -63 11 -54 10 -203 12 -272 3z"/>
</g>
</svg>
