<?xml version="1.0" encoding="utf-8"?>
<!-- Generator: Adobe Illustrator 19.0.1, SVG Export Plug-In . SVG Version: 6.00 Build 0)  -->
<svg version="1.1" id="Layer_1" xmlns="http://www.w3.org/2000/svg" xmlns:xlink="http://www.w3.org/1999/xlink" x="0px" y="0px"
	 viewBox="190 -116 760 520" style="enable-background:new 190 -116 760 520;" xml:space="preserve">
<style type="text/css">
	.st0{fill:none;}
	.st1{fill:#CEAB97;}
	.st2{fill:#37474F;}
	.st3{fill:#FFFFFF;}
	.st4{fill:#F0D0B4;}
	.st5{fill:#79BBCE;}
</style>
<g id="Layer_1_1_">
</g>
<g id="Layer_7">
	<rect x="190" y="-116" class="st0" width="760" height="620"/>
	<g>
		<g>
			<g>
				<path class="st1" d="M620.2,83.7c-0.7-1.4-0.6-7.3-0.6-8.9V58.3h-70v20.3l10.7-1.9l-2.7,59.4L541.9,163v8.7l43.1,0.1l-4,44.1
					h25.5l17.7-70.8C624.1,145.1,629.2,102,620.2,83.7z"/>
			</g>
		</g>
		<g>
			<polygon class="st2" points="540.1,-116 541.2,54.2 586.3,53.3 629.1,52.4 627.9,-116 			"/>
			<polygon class="st3" points="547.1,54.1 547.5,66.1 625,63.3 624.4,52.5 			"/>
			<path class="st3" d="M598.3,29.7c0-3.5,2.8-6.2,6.2-6.2c3.5,0,6.2,2.8,6.2,6.2c0,3.5-2.8,6.2-6.2,6.2
				C601.2,35.9,598.3,33.1,598.3,29.7z"/>
		</g>
	</g>
	<g>
		<path class="st4" d="M594.6,153c-0.8,0-1.4-0.2-1.4-1c0-0.8,0.6-2.2,1.4-2.2h37.6c4.3-2.4,7.6-5.6,7.6-10c0-5.5-7-10.8-12.5-10.9
			c-0.2,0-0.4-0.1-0.6-0.1l-18.3,0.2h-69.6c-1.1,0,1.8-2.3,1.2-3.3c-0.6-1-0.6-2.2,0.1-3.2l16.3-15.7l12.5-11.9c0-0.2,0-0.4,0.2-0.6
			c3.5-4,2.6-10.6-2.3-12.9c-5-2.3-10.1-1.4-14.4,3c-0.2,0.2-0.2,0.3-0.3,0.5L535.5,99l-40.9,36.7c-0.6,0.8-1.5,1.4-2.5,1.4H469
			v69.1h16.6c1.6,0,5.9,1.9,7.2,3.1c8,7.2,17.5,9.5,22.7,9.6c0.2,0,4.5,0,4.7,0l54.6,0.2L594,219l24.8,0.3c0.2-0.1,0.3-0.1,0.5-0.1
			c4.5-0.2,8.4-3.8,8-9.6c-0.2-3.8-2.8-6.6-5.9-8.2h-26.4c-0.8,0-1.4-0.8-1.4-1.6s0.6-1.6,1.4-1.6H633c3.5-0.8,5.5-6.4,5.5-10.5
			c0-4-3.2-8-7.1-9.6h-37.5c-0.8,0-1.4-0.8-1.4-1.6c0-0.8,0.6-1.6,1.4-1.6h42.2c4.3-1.6,7.3-6.8,6.9-12.1c-0.3-4.5-3.9-7.2-8-9.6
			h-40.4V153z"/>
		<g>
			<g>
				<polygon class="st2" points="466.9,171.5 467.9,126.5 190,125.2 190,170.7 190,213.1 466.1,214.4 				"/>
				<polygon class="st3" points="468.8,132.4 480.9,132.7 477.9,210.4 467.2,209.6 				"/>
				<path class="st3" d="M444.4,183.7c-3.5,0-6.2,2.8-6.2,6.2c0,3.5,2.8,6.2,6.2,6.2c3.5,0,6.2-2.8,6.2-6.2
					C450.7,186.4,447.9,183.7,444.4,183.7z"/>
			</g>
		</g>
	</g>
	<g>
		<g>
			<g>
				<path class="st1" d="M545.6,219.2c-0.2,5.1-4.7,9.1-10.1,8.8l0,0c-5.3-0.2-9.5-4.6-9.2-9.6l0.7-15.9c0.2-5.1,4.7-9.1,10.1-8.8
					l0,0c5.3,0.2,9.5,4.6,9.2,9.6L545.6,219.2z"/>
				<path class="st1" d="M588.5,222.3c-0.2,5.1-4.7,9.1-10,8.8l0,0c-5.3-0.2-9.3-4.6-9.2-9.6l0.7-15.9c0.2-5.1,4.7-9.1,10-8.8l0,0
					c5.3,0.2,9.3,4.6,9.2,9.6L588.5,222.3z"/>
				<path class="st1" d="M566.6,221.6c-0.2,5.1-4.7,9.1-9.8,8.8l0,0c-5.2-0.2-9.2-4.6-9-9.6l0.7-15.9c0.2-5.1,4.7-9.1,9.8-8.8l0,0
					c5.2,0.2,9.2,4.6,9,9.6L566.6,221.6z"/>
			</g>
			<path class="st1" d="M541.4,128.8H558l29.5-60.2l-37.9,10.1v2.6c0,1-0.5,1.9-1.2,2.5L516,122.7l-2.3,32.4
				c-0.2,0.2-0.3,0.2-0.5,0.3c-4.3,4.3-5.3,9.5-3,14.4c2.3,4.8,8.8,5.7,12.9,2.3c0.2-0.2,0.4-0.2,0.6-0.2l11.9-12.5
				c0,0,3.5-27.7,3.8-28.8C540.1,128.4,540.9,128.4,541.4,128.8z"/>
		</g>
	</g>
</g>
<rect x="190" y="304" class="st5" width="759.6" height="100"/>
<g>
	<g>
		<path class="st2" d="M517.9,349.2l-13.6,27.5h-6.7l-13.5-27.5v31.7h-11.2v-50.3h15.2l13,27.6l13-27.6h15.1v50.3H518L517.9,349.2
			L517.9,349.2z"/>
		<path class="st2" d="M577.8,330.6v10h-25.1V351h22.5v9.6h-22.5V371h25.8v9.9h-37.1v-50.3L577.8,330.6L577.8,330.6z"/>
		<path class="st2" d="M624.9,330.6v10h-25.1V351h22.5v9.6h-22.5V371h25.8v9.9h-37.1v-50.3L624.9,330.6L624.9,330.6z"/>
		<path class="st2" d="M657,340.3v40.6h-11.2v-40.6h-14.3v-9.7h39.7v9.7H657z"/>
	</g>
</g>
</svg>
