<?xml version="1.0" encoding="utf-8"?>
<!-- Generator: Adobe Illustrator 19.0.1, SVG Export Plug-In . SVG Version: 6.00 Build 0)  -->
<svg version="1.1" xmlns="http://www.w3.org/2000/svg" xmlns:xlink="http://www.w3.org/1999/xlink" x="0px" y="0px"
	 viewBox="0 0 760 520" style="enable-background:new 0 0 760 520;" xml:space="preserve">
<style type="text/css">
	.st0{fill:none;}
	.st1{fill:#79BBCE;}
	.st2{fill:#F0D0B4;}
	.st3{fill:#37474F;}
	.st4{fill:#6DABBE;}
	.st5{fill:#568B9E;}
	.st6{fill:#FFFFFF;}
	.st7{fill:#A3D1E0;}
	.st8{fill:#435860;}
	.st9{fill:#EC2227;}
</style>
<g id="Layer_1">
</g>
<g id="Layer_7">
	<rect y="1" class="st0" width="760" height="620"/>
	<rect y="421" class="st1" width="759.6" height="100"/>
	<g>
		<path class="st2" d="M594.6,302.7H568c0,0-17.7-18-28.1-20.1c-10.4-2.2-91.1,0-91.1,0v55.2l145.8,7.6L594.6,302.7L594.6,302.7z"/>
		<path class="st3" d="M338.8,240.7v80.9c0,6.3,5.2,11.5,11.5,11.5h171.7c6.3,0,11.5-5.2,11.5-11.5v-80.9c0-6.3-5.2-11.5-11.5-11.5
			H350.5C344,229.2,338.8,234.4,338.8,240.7z"/>
		<path class="st4" d="M357.1,245.5v71.3c0,4.3,3.4,7.7,7.7,7.7h132.5c4.3,0,7.7-3.4,7.7-7.7v-71.3c0-4.3-3.4-7.7-7.7-7.7H364.8
			C360.5,237.9,357.1,241.3,357.1,245.5z"/>
		<path class="st4" d="M357.1,245.5v36.2h147.8v-36.2c0-4.3-3.4-7.7-7.7-7.7H364.8C360.5,237.9,357.1,241.3,357.1,245.5z"/>
		<polygon class="st1" points="402.4,246.9 427.7,280.7 402.4,316.5 366.2,316.5 366.2,246.9 		"/>
		<path class="st5" d="M513.6,281.2c0,3.4,2.8,6.2,6.2,6.2c3.4,0,6.2-2.8,6.2-6.2s-2.8-6.2-6.2-6.2
			C516.4,274.9,513.6,277.8,513.6,281.2z"/>
		<path class="st2" d="M592.7,333.6h-22.3c0,0-11.6,0.3-14.7-5.2c-3-5.4-20.1-19.9-37.2-20.8c-17.1-0.9-23.8-1.3-23.8-1.3
			l-30.9-30.9c0,0-10.1-10.1-18.6-1.5c-8.6,8.6,2.3,20,5.4,23.2c3.2,3.2,34.8,36.3,34.8,36.3H437c0,0,28.1,39.1,58.9,39.1
			s98.6,0,98.6,0L592.7,333.6z"/>
		<rect x="587.3" y="298.9" class="st6" width="27.5" height="77.8"/>
		<rect x="587.3" y="298.9" class="st6" width="27.5" height="38.9"/>
		<rect x="604.3" y="292.8" class="st3" width="155.7" height="91.7"/>
		<circle class="st6" cx="626.4" cy="319.2" r="5.6"/>
	</g>
	<g>
		<path class="st2" d="M302.6,91.2v26.6c0,0-18,17.7-20.1,28.1s0,91.1,0,91.1h55.2l7.6-145.8H302.6z"/>
		<path class="st3" d="M240.6,334.3h80.9c6.3,0,11.5-5.2,11.5-11.5V151c0-6.3-5.2-11.5-11.5-11.5h-80.9c-6.3,0-11.5,5.2-11.5,11.5
			v171.7C229.1,329.2,234.3,334.3,240.6,334.3z"/>
		<path class="st4" d="M245.4,316.1h71.3c4.3,0,7.7-3.4,7.7-7.7V176c0-4.3-3.4-7.7-7.7-7.7h-71.3c-4.3,0-7.7,3.4-7.7,7.7v132.5
			C237.7,312.7,241.3,316.1,245.4,316.1z"/>
		<path class="st4" d="M245.4,316.1h36.2V168.3h-36.2c-4.3,0-7.7,3.4-7.7,7.7v132.5C237.7,312.7,241.3,316.1,245.4,316.1z"/>
		<polygon class="st1" points="315.3,280.9 281.6,306.2 245.8,280.9 245.8,176.3 315.3,176.3 		"/>
		<path class="st5" d="M281.1,159.6c3.4,0,6.2-2.8,6.2-6.2s-2.8-6.2-6.2-6.2c-3.4,0-6.2,2.8-6.2,6.2
			C274.8,156.8,277.6,159.6,281.1,159.6z"/>
		<path class="st2" d="M333.5,93.1v22.3c0,0,0.3,11.6-5.2,14.7c-5.4,3-19.9,20.1-20.8,37.2s-1.3,23.8-1.3,23.8l-30.8,30.8
			c0,0-10.1,10.1-1.5,18.6c8.6,8.6,20-2.3,23.2-5.4c3.2-3.2,36.3-34.8,36.3-34.8v48.5c0,0,39.1-28.1,39.1-58.9s0-98.6,0-98.6
			L333.5,93.1z"/>
		<rect x="298.8" y="71.1" class="st6" width="77.8" height="27.5"/>
		<rect x="298.8" y="71.1" class="st6" width="38.9" height="27.5"/>
		<polygon class="st3" points="337.7,0 293,0 293,82 337.7,82 384,82 384,0 		"/>
		<circle class="st6" cx="319" cy="59.4" r="5.6"/>
	</g>
	<g>
		<path class="st6" d="M305,264.5c-0.5-0.8-1.4-1-2.3-1h-7.8c-0.3,0-1.3-0.5-1.6-0.8c-1.3-0.9-1.9-0.8-2.5-0.8h-10.6v0.1h-7.7V262
			h-1.3c-4.3,0-7.8,3.3-7.8,7.6v13.5c0,0.4,0.3,0.5,0.6,0.5h32.7c0.4,0,0.9-0.1,0.9-0.5v-1h-0.6c2,0,3.8-1.3,4.4-3.2l4.2-11.6
			C305.7,266.4,305.5,265.2,305,264.5z"/>
		<g>
			<path class="st7" d="M282.8,273.6h8.1c0.1,0,0.4-0.1,0.4-0.4v-0.4c0-0.1-0.1-0.4-0.4-0.4h-8.1V273.6z"/>
			<path class="st7" d="M282.8,276.3h7.2c0.1,0,0.4-0.1,0.4-0.4v-0.4c0-0.1-0.1-0.4-0.4-0.4h-7.2V276.3z"/>
			<path class="st7" d="M282.8,278.8h6.2c0.1,0,0.4-0.1,0.4-0.4V278c0-0.1-0.1-0.4-0.4-0.4h-6.2V278.8z"/>
		</g>
		<g>
			<path class="st8" d="M303.5,264.6c1.1,0,1.9,1.1,1.5,2.2l-4.2,11.6c-0.5,1.4-1.8,2.3-3.3,2.3h-15.3v-10.1c0-3.3,2.7-5.9,5.9-5.9
				H303.5 M303.5,263.5h-15.3c-3.9,0-7.1,3.2-7.1,7.1v10.1c0,0.6,0.5,1.3,1.3,1.3h15.3c2,0,3.8-1.3,4.4-3.2l4.2-11.6
				c0.3-0.9,0.1-1.8-0.4-2.5C305.3,263.8,304.4,263.5,303.5,263.5L303.5,263.5z"/>
			<path class="st8" d="M296.2,266.4h6.1c0.6,0,1,0.6,0.9,1.1l-1.4,3.4c-0.1,0.4-0.5,0.6-0.9,0.6h-6.1c-0.6,0-1-0.6-0.9-1.1l1.4-3.4
				C295.5,266.6,295.8,266.4,296.2,266.4z"/>
		</g>
		<g>
			<path class="st9" d="M272.9,270.3c-0.3,0-0.5,0-0.8-0.1c-0.5-0.3-0.8-0.5-1-1c-0.1-0.5-0.1-1,0-1.4l7.6-16.6
				c0.1-0.3,0.4-0.5,0.8-0.5c0.1,0,0.3,0,0.4,0.1l6.1,2.7c0.3,0.1,0.4,0.3,0.5,0.5c0.1,0.3,0.1,0.5,0,0.6l-1.9,4.2
				c-0.1,0.3-0.4,0.5-0.8,0.5c-0.1,0-0.3,0-0.3,0l-3.9-1.5l-5.1,11.6C274.3,269.9,273.7,270.3,272.9,270.3z"/>
			<g>
				<path class="st8" d="M279.6,250.9c0.1,0,0.1,0,0.3,0l6.1,2.7c0.3,0.1,0.4,0.4,0.3,0.8l-1.9,4.2c-0.1,0.3-0.3,0.3-0.5,0.3
					c-0.1,0-0.1,0-0.3,0l-4.2-1.6l-5.2,11.9c-0.3,0.6-0.8,0.9-1.4,0.9c-0.3,0-0.4,0-0.6-0.1l0,0c-0.8-0.4-1.1-1.3-0.8-2l7.6-16.6
					C279.2,251.1,279.3,250.9,279.6,250.9 M279.6,250.3c-0.5,0-0.9,0.3-1,0.6l-7.6,16.6c-0.3,0.5-0.3,1.1,0,1.6
					c0.3,0.5,0.6,1,1.1,1.3c0.3,0.1,0.5,0.1,0.9,0.1c0.9,0,1.6-0.5,2-1.3L280,258l3.5,1.4c0.1,0,0.3,0.1,0.4,0.1
					c0.5,0,0.9-0.3,1-0.6l1.9-4.2c0.1-0.3,0.1-0.6,0-0.9s-0.4-0.5-0.6-0.6l-6.1-2.7C280,250.3,279.7,250.3,279.6,250.3L279.6,250.3z
					"/>
			</g>
		</g>
		<path class="st8" d="M264.4,269.5v12.4h16.3v-12c0.1-0.6,0-3.2,1.8-4.8c1-1.1,2.3-1.5,2.3-1.5h-7.1l0.9-2c3.8,0,8.5,0,12.3,0
			c0.6,0,2,0.1,3.3,1c0.5,0.4,0.8,0.6,1,1c-1.4,0-2,0-3.4,0c-0.4,0-5.7-0.4-8,2.9c-0.9,1.4-0.9,3.2-1,3.9v11.4h15.1v1.1
			c0,0.4-0.3,0.6-0.6,0.6H263c-0.4,0-0.6-0.3-0.6-0.6v-13.4c0-4.3,3.5-7.8,7.8-7.8h3.3l-0.8,1.8h-2.3
			C267.1,263.5,264.4,266.1,264.4,269.5z"/>
	</g>
	<g>
		<path class="st6" d="M382.9,260.4c-0.8,0.5-1,1.4-1,2.3v7.8c0,0.3-0.5,1.3-0.8,1.6c-0.9,1.3-0.8,1.9-0.8,2.5v10.6h0.1v7.7h-0.1
			v1.3c0,4.3,3.3,7.8,7.6,7.8h13.5c0.4,0,0.5-0.3,0.5-0.6V269c0-0.4-0.1-0.9-0.5-0.9h-1v0.5c0-2-1.3-3.8-3.2-4.4l-11.6-4.2
			C384.8,259.8,383.6,259.9,382.9,260.4z"/>
		<g>
			<path class="st7" d="M392,282.7v-8.1c0-0.1-0.1-0.4-0.4-0.4h-0.4c-0.1,0-0.4,0.1-0.4,0.4v8.1H392z"/>
			<path class="st7" d="M394.6,282.7v-7.2c0-0.1-0.1-0.4-0.4-0.4h-0.4c-0.1,0-0.4,0.1-0.4,0.4v7.2H394.6z"/>
			<path class="st7" d="M397.2,282.7v-6.2c0-0.1-0.1-0.4-0.4-0.4h-0.4c-0.1,0-0.4,0.1-0.4,0.4v6.2H397.2z"/>
		</g>
		<g>
			<path class="st8" d="M383,262c0-1.1,1.1-1.9,2.2-1.5l11.6,4.2c1.4,0.5,2.3,1.8,2.3,3.3v15.3H389c-3.3,0-5.9-2.7-5.9-5.9V262
				 M381.9,262v15.3c0,3.9,3.2,7.1,7.1,7.1h10.1c0.6,0,1.3-0.5,1.3-1.3v-15.2c0-2-1.3-3.8-3.2-4.4l-11.6-4.2
				c-0.9-0.3-1.8-0.1-2.5,0.4C382.2,260.2,381.9,261.1,381.9,262L381.9,262z"/>
			<path class="st8" d="M384.8,269.3v-6.1c0-0.6,0.6-1,1.1-0.9l3.4,1.4c0.4,0.1,0.6,0.5,0.6,0.9v6.1c0,0.6-0.6,1-1.1,0.9l-3.4-1.4
				C385,269.9,384.8,269.7,384.8,269.3z"/>
		</g>
		<g>
			<path class="st9" d="M386.9,294.4c-0.3,0-0.5,0-0.8-0.1l-16.6-7.6c-0.4-0.3-0.6-0.6-0.4-1.1l2.7-6.1c0.1-0.3,0.4-0.5,0.8-0.5
				c0.1,0,0.3,0,0.4,0.1l4.2,1.9c0.4,0.1,0.6,0.6,0.4,1.1L376,286l11.6,5.1c0.5,0.3,0.8,0.5,1,1c0.3,0.5,0.1,1,0,1.4
				C388.3,294,387.6,294.4,386.9,294.4z"/>
			<g>
				<path class="st8" d="M372.6,279.3c0.1,0,0.1,0,0.3,0l4.2,1.9c0.3,0.1,0.4,0.4,0.3,0.6l-1.6,4.2l11.9,5.2c0.8,0.4,1.1,1.3,0.8,2
					c-0.3,0.5-0.8,0.9-1.4,0.9c-0.3,0-0.4,0-0.6-0.1l-16.6-7.6c-0.3-0.1-0.4-0.4-0.3-0.8l2.7-6.1
					C372.2,279.3,372.4,279.3,372.6,279.3 M372.6,278.7L372.6,278.7c-0.5,0-0.9,0.3-1,0.6l-2.7,6.1c-0.3,0.6,0,1.3,0.6,1.5l16.6,7.6
					c0.3,0.1,0.6,0.3,0.9,0.3c0.9,0,1.6-0.5,2-1.3c0.3-0.5,0.3-1.1,0-1.6c-0.3-0.5-0.6-1-1.1-1.1l-11.3-4.9l1.4-3.5
					c0.3-0.6,0-1.3-0.6-1.5l-4.2-1.9C372.9,278.7,372.8,278.7,372.6,278.7L372.6,278.7z"/>
			</g>
		</g>
		<path class="st8" d="M387.9,301.1h12.4v-16.3h-12c-0.6-0.1-3.2,0-4.8-1.8c-1.1-1-1.5-2.3-1.5-2.3v7.1l-2-0.9c0-3.8,0-8.5,0-12.3
			c0-0.6,0.1-2,1-3.3c0.4-0.5,0.6-0.8,1-1c0,1.4,0,2,0,3.4c0,0.4-0.4,5.7,2.9,8c1.4,0.9,3.2,0.9,3.9,1h11.4v-15.1h1.1
			c0.4,0,0.6,0.3,0.6,0.6v34.2c0,0.4-0.3,0.6-0.6,0.6h-13.4c-4.3,0-7.8-3.5-7.8-7.8v-3.3l1.8,0.8v2.3
			C381.9,298.4,384.5,301.1,387.9,301.1z"/>
	</g>
	<g>
		<g>
			<path class="st3" d="M236.9,486.6c5,0,9.2-2,12.4-6l6.6,6.8c-5.2,5.9-11.4,8.8-18.4,8.8c-7.1,0-12.9-2.2-17.5-6.7
				c-4.6-4.5-6.9-10.1-6.9-16.9s2.3-12.5,7-17.1c4.7-4.6,10.4-6.8,17.1-6.8c7.5,0,13.8,2.9,18.9,8.6l-6.4,7.2c-3.2-4-7.3-6-12.1-6
				c-3.9,0-7.2,1.3-9.9,3.8c-2.7,2.5-4.1,5.9-4.1,10.2s1.3,7.7,3.9,10.3C230.1,485.3,233.2,486.6,236.9,486.6z"/>
			<path class="st3" d="M301.5,489.3c-4.6,4.5-10.4,6.8-17.2,6.8c-6.8,0-12.5-2.3-17.2-6.8c-4.6-4.5-7-10.2-7-16.9
				c0-6.7,2.3-12.4,7-16.9c4.6-4.5,10.4-6.8,17.2-6.8c6.8,0,12.5,2.3,17.2,6.8c4.6,4.5,7,10.2,7,16.9
				C308.5,479.2,306.2,484.8,301.5,489.3z M298.1,472.4c0-4.1-1.3-7.6-3.9-10.5c-2.6-2.9-5.9-4.3-9.7-4.3c-3.8,0-7.1,1.4-9.7,4.3
				c-2.6,2.9-3.9,6.4-3.9,10.5c0,4.1,1.3,7.6,3.9,10.5c2.6,2.9,5.9,4.3,9.7,4.3c3.8,0,7.1-1.4,9.7-4.3
				C296.7,480,298.1,476.5,298.1,472.4z"/>
			<path class="st3" d="M349.3,449.7h10.3v45.9h-10.3l-21.9-28.8v28.8h-10.3v-45.9h9.6l22.5,29.6V449.7z"/>
			<path class="st3" d="M403,449.7h10.3v45.9H403l-21.9-28.8v28.8h-10.3v-45.9h9.6l22.5,29.6V449.7z"/>
			<path class="st3" d="M457.7,449.7v9.1h-22.9v9.5h20.6v8.7h-20.6v9.5h23.6v9.1h-33.8v-45.9H457.7z"/>
			<path class="st3" d="M488.7,486.6c5,0,9.2-2,12.4-6l6.6,6.8c-5.2,5.9-11.4,8.8-18.4,8.8s-12.9-2.2-17.5-6.7
				c-4.6-4.5-6.9-10.1-6.9-16.9s2.3-12.5,7-17.1c4.7-4.6,10.4-6.8,17.1-6.8c7.5,0,13.8,2.9,18.9,8.6l-6.4,7.2c-3.2-4-7.3-6-12.1-6
				c-3.9,0-7.2,1.3-9.9,3.8c-2.7,2.5-4.1,5.9-4.1,10.2s1.3,7.7,3.9,10.3C481.8,485.3,485,486.6,488.7,486.6z"/>
			<path class="st3" d="M535.1,458.6v37.1h-10.3v-37.1h-13v-8.9h36.3v8.9H535.1z"/>
		</g>
	</g>
</g>
</svg>
