<?xml version="1.0" encoding="utf-8"?>
<!-- Generator: Adobe Illustrator 19.0.1, SVG Export Plug-In . SVG Version: 6.00 Build 0)  -->
<svg version="1.1" id="Layer_1" xmlns="http://www.w3.org/2000/svg" xmlns:xlink="http://www.w3.org/1999/xlink" x="0px" y="0px"
	 viewBox="165 -175 379 400" style="enable-background:new 165 -175 379 400;" xml:space="preserve">
<style type="text/css">
	.st0{display:none;clip-path:url(#SVGID_2_);fill:#CEE4EB;}
	.st1{fill:#B9DAE3;}
	.st2{fill:#79BBCE;}
	.st3{fill:#F0D0B4;}
	.st4{fill:#37474F;}
	.st5{fill:#6DABBE;}
	.st6{fill:#568B9E;}
	.st7{fill:#FFFFFF;}
	.st8{fill:#A3D1E0;}
	.st9{fill:#435860;}
	.st10{fill:#EC2227;}
</style>
<g id="TOP_GRAPHIC">
	<g>
		<g>
			<defs>
				<polygon id="SVGID_1_" points="546,226.3 35.7,226.3 -12.5,266.3 -64.3,226.3 -574.7,226.3 -574.7,-174 546,-174 				"/>
			</defs>
			<clipPath id="SVGID_2_">
				<use xlink:href="#SVGID_1_"  style="overflow:visible;"/>
			</clipPath>
			<polygon class="st0" points="546,260.2 35.7,260.2 -14.4,261.4 -64.3,260.2 -574.7,260.2 -574.7,-171.6 546,-171.6 			"/>
		</g>
	</g>
</g>
<rect x="351.2" y="-174" class="st1" width="194.9" height="62.7"/>
<polygon class="st2" points="546.2,226 546.2,163.9 185.2,163.9 236.4,226 "/>
<g>
	<path class="st3" d="M508.9,72.3h-21c0,0-14-14.2-22.2-15.9s-72,0-72,0V100l115.2,6V72.3z"/>
	<path class="st4" d="M306.8,23.3v63.9c0,5,4.1,9.1,9.1,9.1h135.7c5,0,9.1-4.1,9.1-9.1V23.3c0-5-4.1-9.1-9.1-9.1H316
		C310.9,14.2,306.8,18.3,306.8,23.3z"/>
	<path class="st5" d="M321.2,27.1v56.3c0,3.4,2.7,6.1,6.1,6.1H432c3.4,0,6.1-2.7,6.1-6.1V27.1c0-3.4-2.7-6.1-6.1-6.1H327.3
		C323.9,21.1,321.2,23.8,321.2,27.1z"/>
	<path class="st5" d="M321.2,27.1v28.6H438V27.1c0-3.4-2.7-6.1-6.1-6.1H327.3C323.9,21.1,321.2,23.8,321.2,27.1z"/>
	<polygon class="st2" points="357,28.2 377,54.9 357,83.2 328.4,83.2 328.4,28.2 	"/>
	<path class="st6" d="M444.9,55.3c0,2.7,2.2,4.9,4.9,4.9c2.7,0,4.9-2.2,4.9-4.9s-2.2-4.9-4.9-4.9C447.1,50.3,444.9,52.6,444.9,55.3z
		"/>
	<path class="st3" d="M507.4,96.7h-17.6c0,0-9.2,0.2-11.6-4.1s-15.9-15.7-29.4-16.4s-18.8-1-18.8-1l-24.4-24.4c0,0-8-8-14.7-1.2
		c-6.8,6.8,1.8,15.8,4.3,18.3s27.5,28.7,27.5,28.7h-38.3c0,0,22.2,30.9,46.5,30.9s77.9,0,77.9,0L507.4,96.7z"/>
	<rect x="503.1" y="69.3" class="st7" width="21.7" height="61.5"/>
	<rect x="503.1" y="69.3" class="st7" width="21.7" height="30.7"/>
	<rect x="516.5" y="64.6" class="st4" width="29.7" height="72"/>
	<rect x="516.5" y="64.6" class="st4" width="29.7" height="35.4"/>
	<circle class="st7" cx="534" cy="85.3" r="4.4"/>
</g>
<g>
	<g>
		<path class="st4" d="M264.2,208.4c3.5,0,6.4-1.4,8.6-4.2l4.6,4.7c-3.6,4.1-8,6.2-12.9,6.2c-5,0-9-1.6-12.2-4.7s-4.8-7.1-4.8-11.8
			c0-4.8,1.6-8.7,4.9-11.9c3.3-3.2,7.3-4.8,12-4.8c5.3,0,9.7,2,13.2,6l-4.5,5.1c-2.3-2.8-5.1-4.2-8.5-4.2c-2.7,0-5,0.9-6.9,2.6
			c-1.9,1.8-2.9,4.1-2.9,7.1s0.9,5.4,2.7,7.2C259.4,207.5,261.6,208.4,264.2,208.4z"/>
		<path class="st4" d="M309.4,210.3c-3.3,3.2-7.3,4.8-12,4.8c-4.8,0-8.8-1.6-12-4.8c-3.3-3.2-4.9-7.1-4.9-11.8s1.6-8.7,4.9-11.8
			c3.3-3.2,7.3-4.8,12-4.8c4.8,0,8.8,1.6,12,4.8s4.9,7.1,4.9,11.8S312.7,207.1,309.4,210.3z M307,198.5c0-2.9-0.9-5.3-2.8-7.3
			s-4.1-3-6.8-3s-4.9,1-6.8,3c-1.8,2-2.8,4.5-2.8,7.3s0.9,5.3,2.8,7.3c1.8,2,4.1,3,6.8,3s4.9-1,6.8-3
			C306.1,203.8,307,201.3,307,198.5z"/>
		<path class="st4" d="M342.9,182.6h7.2v32.2h-7.2l-15.3-20.2v20.1h-7.2v-32.2h6.7l15.8,20.7V182.6z"/>
		<path class="st4" d="M380.5,182.6h7.2v32.2h-7.2l-15.3-20.1v20.1H358v-32.2h6.7l15.8,20.7V182.6z"/>
		<path class="st4" d="M418.7,182.6v6.4h-16v6.6h14.4v6.1h-14.4v6.7h16.5v6.3h-23.6v-32.2L418.7,182.6L418.7,182.6z"/>
		<path class="st4" d="M440.4,208.4c3.5,0,6.4-1.4,8.6-4.2l4.6,4.7c-3.7,4.1-8,6.2-12.9,6.2c-5,0-9-1.6-12.2-4.7s-4.8-7.1-4.8-11.8
			c0-4.8,1.6-8.7,4.9-11.9s7.3-4.8,12-4.8c5.3,0,9.7,2,13.2,6l-4.5,5.1c-2.3-2.8-5.1-4.2-8.5-4.2c-2.7,0-5,0.9-6.9,2.6
			s-2.9,4.1-2.9,7.1s0.9,5.4,2.7,7.2C435.6,207.5,437.8,208.4,440.4,208.4z"/>
		<path class="st4" d="M472.9,188.8v25.9h-7.2v-25.9h-9.1v-6.2H482v6.2H472.9z"/>
	</g>
</g>
<g>
	<path class="st3" d="M278.2-94.8v21c0,0-14.2,14-15.9,22.2c-1.7,8.2,0,72,0,72h43.6l6-115.2H278.2z"/>
	<path class="st4" d="M229.2,97.3h63.9c5,0,9.1-4.1,9.1-9.1V-47.6c0-5-4.1-9.1-9.1-9.1h-63.9c-5,0-9.1,4.1-9.1,9.1V88.1
		C220.1,93.2,224.2,97.3,229.2,97.3z"/>
	<path class="st5" d="M233,82.9h56.3c3.4,0,6.1-2.7,6.1-6.1V-27.8c0-3.4-2.7-6.1-6.1-6.1H233c-3.4,0-6.1,2.7-6.1,6.1V76.9
		C226.9,80.2,229.7,82.9,233,82.9z"/>
	<path class="st5" d="M233,82.9h28.6V-33.9H233c-3.4,0-6.1,2.7-6.1,6.1V76.9C226.9,80.2,229.7,82.9,233,82.9z"/>
	<polygon class="st2" points="288.2,55.1 261.6,75.1 233.3,55.1 233.3,-27.6 288.2,-27.6 	"/>
	<path class="st6" d="M261.2-40.8c2.7,0,4.9-2.2,4.9-4.9s-2.2-4.9-4.9-4.9s-4.9,2.2-4.9,4.9C256.2-43,258.4-40.8,261.2-40.8z"/>
	<path class="st3" d="M302.6-93.3v17.6c0,0,0.2,9.2-4.1,11.6s-15.7,15.9-16.4,29.4s-1,18.8-1,18.8L256.8,8.4c0,0-8,8-1.2,14.7
		c6.8,6.8,15.8-1.8,18.3-4.3s28.7-27.5,28.7-27.5v38.3c0,0,30.9-22.2,30.9-46.5s0-77.9,0-77.9L302.6-93.3z"/>
	<rect x="275.2" y="-110.7" class="st7" width="61.5" height="21.7"/>
	<rect x="275.2" y="-110.7" class="st7" width="30.7" height="21.7"/>
	<rect x="270.5" y="-174" class="st4" width="72" height="71.6"/>
	<rect x="270.5" y="-174" class="st4" width="35.4" height="71.6"/>
	<circle class="st7" cx="291.1" cy="-119.9" r="4.4"/>
</g>
<g>
	<path class="st7" d="M280.1,42.1c-0.4-0.6-1.1-0.8-1.8-0.8h-6.2c-0.2,0-1-0.4-1.3-0.6c-1-0.7-1.5-0.6-2-0.6h-8.4v0.1h-6.1v-0.1h-1
		c-3.4,0-6.2,2.6-6.2,6v10.7c0,0.3,0.2,0.4,0.5,0.4h25.8c0.3,0,0.7-0.1,0.7-0.4V56h-0.5c1.6,0,3-1,3.5-2.5l3.3-9.2
		C280.6,43.6,280.5,42.7,280.1,42.1z"/>
	<g>
		<path class="st8" d="M262.5,49.3h6.4c0.1,0,0.3-0.1,0.3-0.3v-0.3c0-0.1-0.1-0.3-0.3-0.3h-6.4V49.3z"/>
		<path class="st8" d="M262.5,51.4h5.7c0.1,0,0.3-0.1,0.3-0.3v-0.3c0-0.1-0.1-0.3-0.3-0.3h-5.7V51.4z"/>
		<path class="st8" d="M262.5,53.4h4.9c0.1,0,0.3-0.1,0.3-0.3v-0.3c0-0.1-0.1-0.3-0.3-0.3h-4.9V53.4z"/>
	</g>
	<g>
		<path class="st9" d="M278.9,42.2c0.9,0,1.5,0.9,1.2,1.7l-3.3,9.2c-0.4,1.1-1.4,1.8-2.6,1.8h-12.1v-8c0-2.6,2.1-4.7,4.7-4.7H278.9
			 M278.9,41.3h-12.1c-3.1,0-5.6,2.5-5.6,5.6v8c0,0.5,0.4,1,1,1h12.1c1.6,0,3-1,3.5-2.5l3.3-9.2c0.2-0.7,0.1-1.4-0.3-2
			C280.3,41.6,279.6,41.3,278.9,41.3L278.9,41.3z"/>
		<path class="st9" d="M273.1,43.6h4.8c0.5,0,0.8,0.5,0.7,0.9l-1.1,2.7c-0.1,0.3-0.4,0.5-0.7,0.5H272c-0.5,0-0.8-0.5-0.7-0.9
			l1.1-2.7C272.6,43.8,272.8,43.6,273.1,43.6z"/>
	</g>
	<g>
		<path class="st10" d="M254.7,46.7c-0.2,0-0.4,0-0.6-0.1c-0.4-0.2-0.6-0.4-0.8-0.8c-0.1-0.4-0.1-0.8,0-1.1l6-13.1
			c0.1-0.2,0.3-0.4,0.6-0.4c0.1,0,0.2,0,0.3,0.1l4.8,2.1c0.2,0.1,0.3,0.2,0.4,0.4s0.1,0.4,0,0.5l-1.5,3.3c-0.1,0.2-0.3,0.4-0.6,0.4
			c-0.1,0-0.2,0-0.2,0l-3.1-1.2l-4,9.2C255.8,46.4,255.3,46.7,254.7,46.7z"/>
		<g>
			<path class="st9" d="M260,31.4c0.1,0,0.1,0,0.2,0l4.8,2.1c0.2,0.1,0.3,0.3,0.2,0.6l-1.5,3.3c-0.1,0.2-0.2,0.2-0.4,0.2
				c-0.1,0-0.1,0-0.2,0l-3.3-1.3l-4.1,9.4c-0.2,0.5-0.6,0.7-1.1,0.7c-0.2,0-0.3,0-0.5-0.1l0,0c-0.6-0.3-0.9-1-0.6-1.6l6-13.1
				C259.7,31.5,259.8,31.4,260,31.4 M260,30.9c-0.4,0-0.7,0.2-0.8,0.5l-6,13.1c-0.2,0.4-0.2,0.9,0,1.3c0.2,0.4,0.5,0.8,0.9,1
				c0.2,0.1,0.4,0.1,0.7,0.1c0.7,0,1.3-0.4,1.6-1l3.9-8.9l2.8,1.1c0.1,0,0.2,0.1,0.3,0.1c0.4,0,0.7-0.2,0.8-0.5l1.5-3.3
				c0.1-0.2,0.1-0.5,0-0.7s-0.3-0.4-0.5-0.5l-4.8-2.1C260.3,30.9,260.1,30.9,260,30.9L260,30.9z"/>
		</g>
	</g>
	<path class="st9" d="M248,46.1v9.8h12.9v-9.5c0.1-0.5,0-2.5,1.4-3.8c0.8-0.9,1.8-1.2,1.8-1.2h-5.6l0.7-1.6c3,0,6.7,0,9.7,0
		c0.5,0,1.6,0.1,2.6,0.8c0.4,0.3,0.6,0.5,0.8,0.8c-1.1,0-1.6,0-2.7,0c-0.3,0-4.5-0.3-6.3,2.3c-0.7,1.1-0.7,2.5-0.8,3.1v9h11.9v0.9
		c0,0.3-0.2,0.5-0.5,0.5h-27c-0.3,0-0.5-0.2-0.5-0.5V46.1c0-3.4,2.8-6.2,6.2-6.2h2.6l-0.6,1.4h-1.8C250.1,41.3,248,43.4,248,46.1z"
		/>
</g>
<g>
	<path class="st7" d="M341.6,38.9c-0.6,0.4-0.8,1.1-0.8,1.8v6.2c0,0.2-0.4,1-0.6,1.3c-0.7,1-0.6,1.5-0.6,2v8.4h0.1v6.1h-0.1v1
		c0,3.4,2.6,6.2,6,6.2h10.7c0.3,0,0.4-0.2,0.4-0.5V45.7c0-0.3-0.1-0.7-0.4-0.7h-0.8v0.4c0-1.6-1-3-2.5-3.5l-9.2-3.3
		C343.1,38.4,342.2,38.5,341.6,38.9z"/>
	<g>
		<path class="st8" d="M348.8,56.5v-6.4c0-0.1-0.1-0.3-0.3-0.3h-0.3c-0.1,0-0.3,0.1-0.3,0.3v6.4H348.8z"/>
		<path class="st8" d="M350.9,56.5v-5.7c0-0.1-0.1-0.3-0.3-0.3h-0.3c-0.1,0-0.3,0.1-0.3,0.3v5.7H350.9z"/>
		<path class="st8" d="M352.9,56.5v-4.9c0-0.1-0.1-0.3-0.3-0.3h-0.3c-0.1,0-0.3,0.1-0.3,0.3v4.9H352.9z"/>
	</g>
	<g>
		<path class="st9" d="M341.7,40.1c0-0.9,0.9-1.5,1.7-1.2l9.2,3.3c1.1,0.4,1.8,1.4,1.8,2.6v12.1h-8c-2.6,0-4.7-2.1-4.7-4.7V40.1
			 M340.8,40.1v12.1c0,3.1,2.5,5.6,5.6,5.6h8c0.5,0,1-0.4,1-1v-12c0-1.6-1-3-2.5-3.5l-9.2-3.3c-0.7-0.2-1.4-0.1-2,0.3
			S340.8,39.4,340.8,40.1L340.8,40.1z"/>
		<path class="st9" d="M343.1,45.9v-4.8c0-0.5,0.5-0.8,0.9-0.7l2.7,1.1c0.3,0.1,0.5,0.4,0.5,0.7V47c0,0.5-0.5,0.8-0.9,0.7l-2.7-1.1
			C343.3,46.4,343.1,46.2,343.1,45.9z"/>
	</g>
	<g>
		<path class="st10" d="M344.8,65.7c-0.2,0-0.4,0-0.6-0.1l-13.1-6c-0.3-0.2-0.5-0.5-0.3-0.9l2.1-4.8c0.1-0.2,0.3-0.4,0.6-0.4
			c0.1,0,0.2,0,0.3,0.1l3.3,1.5c0.3,0.1,0.5,0.5,0.3,0.9l-1.2,3.1l9.2,4c0.4,0.2,0.6,0.4,0.8,0.8c0.2,0.4,0.1,0.8,0,1.1
			C345.9,65.4,345.3,65.7,344.8,65.7z"/>
		<g>
			<path class="st9" d="M333.5,53.8c0.1,0,0.1,0,0.2,0l3.3,1.5c0.2,0.1,0.3,0.3,0.2,0.5l-1.3,3.3l9.4,4.1c0.6,0.3,0.9,1,0.6,1.6
				c-0.2,0.4-0.6,0.7-1.1,0.7c-0.2,0-0.3,0-0.5-0.1l-13.1-6c-0.2-0.1-0.3-0.3-0.2-0.6l2.1-4.8C333.2,53.8,333.3,53.8,333.5,53.8
				 M333.5,53.3L333.5,53.3c-0.4,0-0.7,0.2-0.8,0.5l-2.1,4.8c-0.2,0.5,0,1,0.5,1.2l13.1,6c0.2,0.1,0.5,0.2,0.7,0.2
				c0.7,0,1.3-0.4,1.6-1c0.2-0.4,0.2-0.9,0-1.3c-0.2-0.4-0.5-0.8-0.9-0.9l-8.9-3.9l1.1-2.8c0.2-0.5,0-1-0.5-1.2l-3.3-1.5
				C333.7,53.3,333.6,53.3,333.5,53.3L333.5,53.3z"/>
		</g>
	</g>
	<path class="st9" d="M345.6,71h9.8V58.1h-9.5c-0.5-0.1-2.5,0-3.8-1.4c-0.9-0.8-1.2-1.8-1.2-1.8v5.6l-1.6-0.7c0-3,0-6.7,0-9.7
		c0-0.5,0.1-1.6,0.8-2.6c0.3-0.4,0.5-0.6,0.8-0.8c0,1.1,0,1.6,0,2.7c0,0.3-0.3,4.5,2.3,6.3c1.1,0.7,2.5,0.7,3.1,0.8h9V44.6h0.9
		c0.3,0,0.5,0.2,0.5,0.5v27c0,0.3-0.2,0.5-0.5,0.5h-10.6c-3.4,0-6.2-2.8-6.2-6.2v-2.6l1.4,0.6v1.8C340.8,68.9,342.9,71,345.6,71z"/>
</g>
</svg>
