<?xml version="1.0" encoding="utf-8"?>
<!-- Generator: Adobe Illustrator 19.0.1, SVG Export Plug-In . SVG Version: 6.00 Build 0)  -->
<svg version="1.1" id="Layer_1" xmlns="http://www.w3.org/2000/svg" xmlns:xlink="http://www.w3.org/1999/xlink" x="0px" y="0px"
	 viewBox="190 -116 760 520" style="enable-background:new 190 -116 760 520;" xml:space="preserve">
<style type="text/css">
	.st0{fill:none;}
	.st1{fill:#F0D0B4;}
	.st2{fill:#37474F;}
	.st3{fill:#6DABBE;}
	.st4{fill:#79BBCE;}
	.st5{opacity:0.6;fill:#6DABBE;enable-background:new    ;}
	.st6{opacity:0.6;}
	.st7{fill:#FFFFFF;}
	.st8{fill:#A3D1E0;}
	.st9{fill:#435860;}
	.st10{fill:#EC2227;}
</style>
<g id="Layer_7">
	<rect x="190" y="-116" class="st0" width="760" height="620"/>
	<path class="st1" d="M402.1,168.4l4.9-10.8v-29.2c0-9.8,3.1-19.3,8.9-27.2l31.6-42.9l36.1-24.1l9.2,81.7l-6,45.5l-28.4,30.9
		L402.1,168.4z"/>
	<g>
		<path class="st2" d="M675.5-33.8H464.9c-13.6,0-24.6,11.1-24.6,24.6V135c0,13.6,11.1,24.6,24.6,24.6h210.6
			c13.6,0,24.6-11.1,24.6-24.6v-144C700.3-22.7,689.1-33.8,675.5-33.8z"/>
		<polygon class="st3" points="464.4,-15.7 462.8,-15.7 462.8,141.6 621.7,141.6 676.3,141.6 676.3,-15.7 		"/>
		<g>
			<rect x="474.1" y="23.5" class="st4" width="189.7" height="107.8"/>
		</g>
		<rect x="478.1" y="35.5" class="st3" width="55.8" height="11.1"/>
		<rect x="602.9" y="109.4" class="st3" width="55.8" height="15.4"/>
		<rect x="537.8" y="109.4" class="st3" width="55.8" height="15.4"/>
		<rect x="478.1" y="70.9" class="st5" width="55.8" height="11.1"/>
		<rect x="478.1" y="53.4" class="st5" width="55.8" height="11.1"/>
		<g class="st6">
			<g>
				<path class="st3" d="M657.1,55v45.7H539.3V55H657.1 M658.8,53.4H537.7v49h121L658.8,53.4L658.8,53.4z"/>
			</g>
		</g>
		<g class="st6">
			<g>
				<path class="st3" d="M620.1,37.1V45h-80.8v-7.9H620.1 M621.7,35.5h-84v11.1h83.9L621.7,35.5L621.7,35.5z"/>
			</g>
		</g>
		<g class="st6">
			<g>
				<path class="st3" d="M657.1,37.1V45h-29.9v-7.9H657.1 M658.8,35.5h-33.1v11.1h33.1V35.5L658.8,35.5z"/>
			</g>
		</g>
		<rect x="625.8" y="0.5" class="st4" width="33.1" height="12.5"/>
		<rect x="537.7" y="0.5" class="st4" width="83.9" height="12.5"/>
		<g>
			<path class="st7" d="M523.7,0.2c-0.4-0.7-1.2-0.9-2-0.9h-6.7c-0.2,0-1.1-0.4-1.4-0.7C512.6-2.1,512-2,511.5-2h-9v0.1h-6.6V-2
				h-1.1c-3.7,0-6.7,2.8-6.7,6.5v11.5c0,0.3,0.2,0.4,0.6,0.4h27.8c0.3,0,0.7-0.1,0.7-0.4v-1h-0.3c1.7,0,3.3-1.1,3.7-2.7l3.6-9.9
				C524.2,1.7,524.1,0.8,523.7,0.2z"/>
			<g>
				<path class="st8" d="M504.7,7.9h6.9c0.1,0,0.3-0.1,0.3-0.3V7.3c0-0.1-0.1-0.3-0.3-0.3h-6.9V7.9z"/>
				<path class="st8" d="M504.7,10.2h6.2c0.1,0,0.3-0.1,0.3-0.3V9.6c0-0.1-0.1-0.3-0.3-0.3h-6.2V10.2z"/>
				<path class="st8" d="M504.7,12.3h5.3c0.1,0,0.3-0.1,0.3-0.3v-0.3c0-0.1-0.1-0.3-0.3-0.3h-5.3V12.3z"/>
			</g>
			<g>
				<path class="st9" d="M522.4,0.3c1,0,1.6,1,1.3,1.9l-3.6,9.9c-0.4,1.2-1.5,2-2.8,2h-13V5.4c0-2.8,2.3-5,5-5L522.4,0.3 M522.4-0.8
					h-13c-3.3,0-6,2.7-6,6v8.6c0,0.6,0.4,1.1,1.1,1.1h13c1.7,0,3.3-1.1,3.7-2.7l3.6-9.9c0.2-0.7,0.1-1.5-0.3-2.2
					C524-0.5,523.2-0.8,522.4-0.8L522.4-0.8z"/>
				<path class="st9" d="M516.1,1.7h5.2c0.6,0,0.9,0.6,0.7,1l-1.2,2.9c-0.1,0.3-0.4,0.6-0.7,0.6h-5c-0.6,0-0.9-0.6-0.7-1l1.2-2.9
					C515.6,2,515.8,1.7,516.1,1.7z"/>
			</g>
			<g>
				<path class="st10" d="M496.3,5.2c-0.2,0-0.4,0-0.7-0.1c-0.4-0.2-0.7-0.4-0.9-0.9s-0.1-0.9,0-1.2l6.5-14.2
					c0.1-0.2,0.3-0.4,0.7-0.4c0.1,0,0.2,0,0.3,0.1l5.2,2.3c0.2,0.1,0.3,0.2,0.4,0.4c0.1,0.2,0.1,0.4,0,0.6l-1.6,3.6
					c-0.1,0.2-0.3,0.4-0.7,0.4c-0.1,0-0.2,0-0.2,0L502-5.6l-4.3,9.9C497.5,4.8,497,5.2,496.3,5.2z"/>
				<g>
					<path class="st9" d="M502-11.4c0.1,0,0.1,0,0.2,0l5.2,2.3c0.2,0.1,0.3,0.3,0.2,0.7l-1.6,3.6c-0.1,0.2-0.2,0.2-0.4,0.2
						c-0.1,0-0.1,0-0.2,0L501.9-6l-4.3,10.2c-0.2,0.6-0.7,0.7-1.2,0.7c-0.2,0-0.3,0-0.6-0.1l0,0c-0.7-0.3-1-1.1-0.7-1.7l6.5-14.2
						C501.7-11.3,501.8-11.4,502-11.4 M502-11.9L502-11.9c-0.4,0-0.7,0.2-0.9,0.6l-6.5,14.2c-0.2,0.4-0.2,1,0,1.4
						c0.2,0.4,0.6,0.9,1,1.1c0.2,0.1,0.4,0.1,0.7,0.1c0.7,0,1.4-0.4,1.7-1.1l4.2-9.6l3,1.2c0.1,0,0.2,0.1,0.3,0.1
						c0.4,0,0.7-0.2,0.9-0.6l1.6-3.6c0.1-0.2,0.1-0.6,0-0.7c-0.1-0.2-0.3-0.4-0.6-0.6l-5.2-2.3C502.2-11.9,502.1-11.9,502-11.9
						L502-11.9z"/>
				</g>
			</g>
			<path class="st9" d="M489.1,4.5v10.6H503V4.8c0.1-0.6,0-2.7,1.5-4.1c0.9-1,2-1.3,2-1.3h-6l0.7-1.7c3.3,0,7.2,0,10.5,0
				c0.6,0,1.7,0.1,2.8,0.9c0.4,0.3,0.7,0.6,0.9,0.9c-1.2,0-1.7,0-2.9,0c-0.3,0-4.9-0.3-6.8,2.4c-0.7,1.2-0.7,2.7-0.9,3.3v9.6h12.9v1
				c0,0.3-0.2,0.6-0.6,0.6H488c-0.3,0-0.6-0.2-0.6-0.6V4.5c0-3.7,3-6.7,6.7-6.7h2.8l-0.7,1.5h-2C491.4-0.8,489.1,1.6,489.1,4.5z"/>
		</g>
	</g>
	<g>
		<path class="st1" d="M501.9,106.4c0,0.1,0,0.2,0,0.3c0,0.3,0,0.6-0.1,0.9c-0.2,1.4-0.7,2.7-1.5,3.7c-0.1,0.1-0.2,0.3-0.3,0.4
			c-1.6,2.2-4.3,3.7-7.3,4h-25.9c0,0,3.7,24.6-9.8,39.9c-2.6,2.9,2.8,15.2,2.8,15.2l9.5-2l-26.8,11.4l-19.6-23.4l12-64.6h22.1
			l24.6,4.1l2.8,0.4l14.2,2.4C499,99.8,501.9,102.4,501.9,106.4z"/>
		<polygon class="st7" points="397.3,161.7 407,147.4 459.3,189 446.8,205.2 		"/>
		<polygon class="st2" points="381.2,307 455.4,200.9 433.5,183.4 397,154.3 269.7,307 		"/>
	</g>
	<circle class="st7" cx="400.6" cy="185.9" r="5.6"/>
	<path class="st1" d="M719.9,147.6c-0.6-0.6-1.7-1.9-3.1-3.4c-2.7-3-6.3-6.2-8.5-9.7c-2.6-4.2-2.4-9.6-4.6-14c-2.4-5-6-9.8-9.3-14.3
		c-4.6-6.5-8.7-12.7-14.3-18.5l0,0l-17.6-18.1c-3.3-3.3-6.7-3.3-10.2,0c-0.6,0.6-1.1,1.2-1.4,1.9c-1.3,2.4-0.7,5.4,1.2,7.3l6.9,6.9
		c0.7,0.7,1,2,0.3,2.8c-0.7,1.1-2.4,1.2-3.3,0.3l-5.7-5.7l-0.1,0.1c-0.3-0.4-0.7-0.7-1-1.2l-5.9-5.7c-3.3-3.3-8.4-3.7-11.9-0.7
		c-2.8,2.3-3.7,5.9-2.7,9c0.2,0.7,0.6,1.2,1,1.6l9.5,9.5c0.7,0.7,1,2,0.3,2.8c-0.7,1.1-2.4,1.2-3.3,0.3l-12.4-12
		c-3.3-2-7.7-1.6-10.7,1.3c-0.9,0.9-1.4,1.7-1.9,2.7c-0.9,2.2-0.3,4.6,1.3,6.3l8.1,8.1c0.9,0.9,0.9,2.2,0,3c-0.9,0.9-2.2,0.9-3,0
		l-5.5-5.4c0,0-11.1-11.7-12.2-13c-5-5.7-10.2-11.4-15.3-17.2c-0.9-0.9-1.6-1.9-2.4-2.7c-0.6-0.6-1.1-0.9-1.7-1.1
		c-0.6-0.1-1.1-0.2-1.7-0.2H579c-0.4,0-1,0.1-1.4,0.1c-4.3,0.6-7.9,3.7-8.9,8.1c-0.1,0.4-0.2,1-0.2,1.5v0.1c0,0.2,0,0.4,0,0.7
		c0,0.9,0.1,1.6,0.7,2.3c1.3,1.7,2.9,3.3,4.3,4.9l0.1,0.1c7.4,8.3,15,16.6,22.4,25c5.3,5.9,10.6,11.6,15.7,17.6c6.7,7,12,13,17.6,21
		c-3.6-1.2-7.6-2.6-10.7-4.7c-2.4-1.7-3.7-4.4-6.3-6.3c-3-2.2-7.7-4.3-11.5-4.1c-2,0.1-5,1.6-6.7,2.7c-6.6,4.2,2.4,8.1,5.9,11
		c3.9,3,6.3,6.9,9.5,10.3c3.9,4.1,9.4,7.6,13.9,11c11.5,8.6,28.5,8.3,42.1,11.5c8.3,2,15.3,4.3,21.8-1.9c7.1-6.7,15.3-12,22.6-18.5
		c3.6-3.1,1.9-4,5.3-7.2l3.4-3.1c0.3-0.3,1.6-1.1,1.9-1.6C720.9,148.6,720.3,148.1,719.9,147.6z"/>
	<polygon class="st7" points="731.6,158.7 722,144.5 669.6,186.1 682.1,202.4 	"/>
	<polygon class="st2" points="867.2,307 731.9,151.4 695.5,180.5 673.5,197.9 749.6,307 	"/>
	<circle class="st7" cx="707" cy="204.3" r="5.6"/>
</g>
<rect x="190" y="304" class="st4" width="759.6" height="100"/>
<g>
	<g>
		<path class="st2" d="M452.8,371c5.5,0,10-2.2,13.5-6.6l7.2,7.4c-5.7,6.4-12.4,9.6-20.2,9.6c-7.8,0-14.1-2.4-19.2-7.3
			c-5-4.9-7.5-11.1-7.5-18.5s2.6-13.7,7.7-18.7c5.1-5,11.4-7.5,18.8-7.5c8.3,0,15.2,3.1,20.7,9.4l-7,7.9c-3.6-4.4-8-6.6-13.2-6.6
			c-4.2,0-7.8,1.4-10.8,4.1c-3,2.8-4.5,6.5-4.5,11.2s1.4,8.4,4.2,11.3C445.4,369.5,448.8,371,452.8,371z"/>
		<path class="st2" d="M523.2,347.3c0,8.1-3.2,13.3-9.6,15.6l12.7,18h-13.8l-11.2-16.1h-7.8v16.1h-11.2v-50.3h19.1
			c7.8,0,13.4,1.3,16.7,4C521.6,337.2,523.2,341.4,523.2,347.3z M509.7,353.2c1.4-1.2,2.1-3.2,2.1-5.9s-0.7-4.6-2.2-5.6
			s-4-1.5-7.6-1.5h-8.4v14.9h8.2C505.7,355.1,508.3,354.5,509.7,353.2z"/>
		<path class="st2" d="M571,330.6v10h-25V351h22.5v9.6H546V371h25.8v9.9h-37.1v-50.3L571,330.6L571,330.6z"/>
		<path class="st2" d="M617.7,380.9L613,370h-21.1l-4.7,10.9h-12l21.7-50.3h10.9l21.7,50.3H617.7z M602.5,345.5l-6.3,14.6h12.6
			L602.5,345.5z"/>
		<path class="st2" d="M653.1,340.3v40.6h-11.2v-40.6h-14.3v-9.7h39.7v9.7H653.1z"/>
		<path class="st2" d="M711.9,330.6v10h-25.1V351h22.5v9.6h-22.5V371h25.8v9.9h-37.1v-50.3L711.9,330.6L711.9,330.6z"/>
	</g>
</g>
</svg>
