<?xml version="1.0" encoding="utf-8"?>
<!-- Generator: Adobe Illustrator 19.0.1, SVG Export Plug-In . SVG Version: 6.00 Build 0)  -->
<svg version="1.1" id="Layer_1" xmlns="http://www.w3.org/2000/svg" xmlns:xlink="http://www.w3.org/1999/xlink" x="0px" y="0px"
	 viewBox="0 0 135 135" style="enable-background:new 0 0 135 135;" xml:space="preserve">
<style type="text/css">
	.st0{fill:#568B9E;}
	.st1{fill:#8EC5D5;}
	.st2{fill:#6DABBE;}
</style>
<g>
	<g>
		<rect x="10.9" y="33.1" class="st0" width="113.3" height="68.7"/>
		<path class="st1" d="M116.9,82.6V52.4h0c-6.7,0-12.1-5.4-12.1-12.1H30.1c0,6.7-5.4,12.1-12.1,12.1v30.2c6.7,0,12.1,5.4,12.1,12.1
			h74.7C104.9,88,110.3,82.6,116.9,82.6z"/>
		<path class="st2" d="M30.1,94.7h74.7c0-6.7,5.4-12.1,12.1-12.1V52.4h0c-6.7,0-12.1-5.4-12.1-12.1"/>
		<circle class="st0" cx="67.5" cy="67.5" r="22.2"/>
		<path class="st1" d="M76,56.1v7.5h-4.3c-0.1-1.6-0.5-2.8-1.2-3.6c-0.7-0.7-1.9-1.1-3.5-1.1c-1.1,0-2,0.3-2.7,0.8
			c-0.7,0.5-1,1.3-1,2.3c0,1.2,0.4,2,1.3,2.4c0.9,0.4,2.5,0.9,4.9,1.5c2.4,0.6,4.2,1.5,5.4,2.5c1.2,1,1.8,2.7,1.8,4.9
			c0,2.1-0.7,3.9-2.1,5.1c-1.4,1.3-3.2,1.9-5.3,2v2.8h-3.5v-3.2c-1.4-0.4-2.4-1.1-3-2.1h-0.1v2h-4.2v-8h4.3c0,1.9,0.4,3.2,1.2,4
			c0.8,0.8,2.1,1.2,3.9,1.2c0.9,0,1.8-0.3,2.7-0.9c0.8-0.6,1.3-1.3,1.3-2.2c0-1.6-0.5-2.6-1.5-3.2c-1-0.5-2.6-1.1-4.8-1.6
			c-2.2-0.5-3.9-1.2-5-2.1c-1.1-0.9-1.7-2.4-1.7-4.6c0-2.2,0.6-3.9,1.9-5.1c1.3-1.2,3-1.8,5.1-1.9v-2.8h3.5v3.3
			c0.9,0.2,1.8,0.9,2.6,2h0.1v-1.9H76z"/>
	</g>
</g>
</svg>
