<?xml version="1.0" encoding="utf-8"?>
<!-- Generator: Adobe Illustrator 19.0.1, SVG Export Plug-In . SVG Version: 6.00 Build 0)  -->
<svg version="1.1" id="Layer_1" xmlns="http://www.w3.org/2000/svg" xmlns:xlink="http://www.w3.org/1999/xlink" x="0px" y="0px"
	 viewBox="0 0 225 135" style="enable-background:new 0 0 225 135;" xml:space="preserve">
<style type="text/css">
	.st0{fill:#568B9E;}
	.st1{fill:#6DABBE;}
	.st2{fill:#8EC5D5;}
</style>
<g>
	<g>
		<g>
			<g>
				<polygon class="st0" points="119.6,95.7 119.5,53.5 223.8,77.9 				"/>
			</g>
		</g>
		<g>
			<g>
				<polygon class="st1" points="136.3,39.3 119.5,53.5 223.8,77.9 				"/>
			</g>
		</g>
		<g>
			<g>
				<polygon class="st0" points="119.6,95.7 111.3,60.5 223.8,77.9 				"/>
			</g>
		</g>
		<g>
			<g>
				<polygon class="st2" points="82.7,84.7 111.3,60.5 223.8,77.9 				"/>
			</g>
		</g>
	</g>
	<g>
		<g>
			<g>
				<g>
					<path class="st1" d="M115.3,45.9C115.2,45.9,115.2,45.9,115.3,45.9L92,45.6c-0.7,0-1.3-0.6-1.3-1.4c0-0.7,0.6-1.3,1.3-1.3
						c0,0,0,0,0,0l23.2,0.3c0.7,0,1.3,0.6,1.3,1.4C116.6,45.3,116,45.9,115.3,45.9z"/>
				</g>
				<g>
					<path class="st1" d="M102.9,55.5C102.9,55.5,102.9,55.5,102.9,55.5l-29.6-0.4c-0.7,0-1.3-0.6-1.3-1.4c0-0.7,0.6-1.3,1.4-1.3
						l29.5,0.4c0.7,0,1.3,0.6,1.3,1.4C104.2,54.9,103.6,55.5,102.9,55.5z"/>
				</g>
				<g>
					<path class="st1" d="M90.5,65.2C90.5,65.2,90.5,65.2,90.5,65.2l-49.6-0.6c-0.7,0-1.3-0.6-1.3-1.4c0-0.7,0.6-1.3,1.4-1.3
						l49.6,0.6c0.7,0,1.3,0.6,1.3,1.4C91.9,64.6,91.3,65.2,90.5,65.2z"/>
				</g>
				<g>
					<path class="st1" d="M78.2,74.9C78.2,74.9,78.2,74.9,78.2,74.9l-51.9-0.7c-0.7,0-1.3-0.6-1.3-1.4c0-0.7,0.6-1.3,1.3-1.3
						c0,0,0,0,0,0l51.9,0.7c0.7,0,1.3,0.6,1.3,1.4C79.5,74.3,78.9,74.9,78.2,74.9z"/>
				</g>
			</g>
		</g>
		<g>
			<g>
				<g>
					<g>
						<path class="st1" d="M85,45.6h-3.3c-0.7,0-1.3-0.6-1.3-1.3c0-0.7,0.6-1.3,1.3-1.3H85c0.7,0,1.3,0.6,1.3,1.3
							C86.4,45,85.8,45.6,85,45.6z"/>
					</g>
				</g>
				<g>
					<g>
						<path class="st1" d="M15.9,74.1H2.5c-0.7,0-1.3-0.6-1.3-1.3c0-0.7,0.6-1.3,1.3-1.3h13.4c0.7,0,1.3,0.6,1.3,1.3
							C17.3,73.5,16.7,74.1,15.9,74.1z"/>
					</g>
				</g>
				<g>
					<g>
						<path class="st1" d="M64.3,55.1h-6.7c-0.7,0-1.3-0.6-1.3-1.3s0.6-1.3,1.3-1.3h6.7c0.7,0,1.3,0.6,1.3,1.3S65,55.1,64.3,55.1z"
							/>
					</g>
				</g>
			</g>
		</g>
	</g>
</g>
</svg>
