<?xml version="1.0" encoding="utf-8"?>
<!-- Generator: Adobe Illustrator 19.0.1, SVG Export Plug-In . SVG Version: 6.00 Build 0)  -->
<svg version="1.1" id="Layer_1" xmlns="http://www.w3.org/2000/svg" xmlns:xlink="http://www.w3.org/1999/xlink" x="0px" y="0px"
	 viewBox="0 0 145 135" style="enable-background:new 0 0 145 135;" xml:space="preserve">
<style type="text/css">
	.st0{fill:#568B9E;}
	.st1{fill:#6DABBE;}
	.st2{fill:#55B2BE;}
	.st3{fill:#8EC5D5;}
</style>
<g>
	<g>
		<g>
			<rect x="24.4" y="84" class="st0" width="97" height="17.1"/>
			<rect x="24.4" y="84" class="st1" width="97" height="5.3"/>
			<g>
				<g>
					<rect x="114.9" y="95.8" class="st2" width="2.3" height="5.3"/>
					<rect x="109.5" y="98.5" class="st2" width="2.3" height="2.6"/>
					<rect x="104.1" y="95.8" class="st2" width="2.3" height="5.3"/>
					<rect x="98.7" y="98.5" class="st2" width="2.3" height="2.6"/>
					<rect x="93.3" y="95.8" class="st2" width="2.3" height="5.3"/>
					<rect x="88" y="98.5" class="st2" width="2.3" height="2.6"/>
					<rect x="82.6" y="95.8" class="st2" width="2.3" height="5.3"/>
					<rect x="77.2" y="98.5" class="st2" width="2.3" height="2.6"/>
					<rect x="71.8" y="95.8" class="st2" width="2.3" height="5.3"/>
					<rect x="66.4" y="98.5" class="st2" width="2.3" height="2.6"/>
					<rect x="61" y="95.8" class="st2" width="2.3" height="5.3"/>
					<rect x="55.6" y="98.5" class="st2" width="2.3" height="2.6"/>
					<rect x="50.2" y="95.8" class="st2" width="2.3" height="5.3"/>
					<rect x="44.8" y="98.5" class="st2" width="2.3" height="2.6"/>
					<rect x="39.5" y="95.8" class="st2" width="2.3" height="5.3"/>
					<rect x="34.1" y="98.5" class="st2" width="2.3" height="2.6"/>
					<rect x="28.7" y="95.8" class="st2" width="2.3" height="5.3"/>
				</g>
			</g>
		</g>
		<g>
			<rect x="28.6" y="84" class="st0" width="97" height="17.1"/>
			<rect x="28.6" y="84" class="st1" width="97" height="5.3"/>
			<g>
				<g>
					<rect x="119.1" y="95.8" class="st1" width="2.3" height="5.3"/>
					<rect x="113.7" y="98.5" class="st1" width="2.3" height="2.6"/>
					<rect x="108.3" y="95.8" class="st1" width="2.3" height="5.3"/>
					<rect x="102.9" y="98.5" class="st1" width="2.3" height="2.6"/>
					<rect x="97.6" y="95.8" class="st1" width="2.3" height="5.3"/>
					<rect x="92.2" y="98.5" class="st1" width="2.3" height="2.6"/>
					<rect x="86.8" y="95.8" class="st1" width="2.3" height="5.3"/>
					<rect x="81.4" y="98.5" class="st1" width="2.3" height="2.6"/>
					<rect x="76" y="95.8" class="st1" width="2.3" height="5.3"/>
					<rect x="70.6" y="98.5" class="st1" width="2.3" height="2.6"/>
					<rect x="65.2" y="95.8" class="st1" width="2.3" height="5.3"/>
					<rect x="59.8" y="98.5" class="st1" width="2.3" height="2.6"/>
					<rect x="54.4" y="95.8" class="st1" width="2.3" height="5.3"/>
					<rect x="49.1" y="98.5" class="st1" width="2.3" height="2.6"/>
					<rect x="43.7" y="95.8" class="st1" width="2.3" height="5.3"/>
					<rect x="38.3" y="98.5" class="st1" width="2.3" height="2.6"/>
					<rect x="32.9" y="95.8" class="st1" width="2.3" height="5.3"/>
				</g>
			</g>
			<g>
				<g>
					<rect x="27.8" y="98.5" class="st1" width="2.3" height="2.6"/>
				</g>
			</g>
		</g>
	</g>
	<g>
		<polygon class="st0" points="17.9,39.6 17.9,45.3 17.9,51 91.5,51 91.5,45.3 91.5,39.6 		"/>
		<rect x="17.9" y="33.9" class="st1" width="73.6" height="5.7"/>
		<polygon class="st1" points="17.9,33.9 8.1,39.6 8.1,45.3 17.9,51 		"/>
		<polygon class="st3" points="17.9,33.9 17.9,39.6 8.1,41.5 8.1,39.6 		"/>
		<polygon class="st0" points="8.1,39.6 3.1,42.5 8.1,45.3 		"/>
		<rect x="91.5" y="33.9" class="st1" width="5.7" height="5.7"/>
		<rect x="91.5" y="39.6" class="st0" width="5.7" height="11.4"/>
		<path class="st3" d="M98.5,33.9l-1.3,0l0,5.7h1.3c2.2,0,4.4,0.8,6,2.5c0.9,0.9,1.6,2,2,3.2c0.3-0.9,0.5-1.9,0.5-2.8
			c0-2.2-0.8-4.4-2.5-6.1C102.9,34.7,100.7,33.9,98.5,33.9z"/>
		<path class="st1" d="M98.5,39.6h-1.3l0,11.4l1.3,0c2.2,0,4.4-0.8,6-2.5c0.9-0.9,1.6-2,2-3.2c-0.4-1.2-1.1-2.3-2-3.2
			C102.9,40.4,100.7,39.6,98.5,39.6z"/>
	</g>
	<g>
		<path class="st1" d="M97.8,59l0,17l15.4-2.9c1.9-0.4,3.3-2.7,3.3-5.6c0-2.8-1.4-5.2-3.3-5.6L97.8,59z"/>
		<path class="st3" d="M112.7,65.8c1.3,0.2,2.5,1.5,3,3.1c0.2-0.7,0.5-1.6,0.5-2.5c0-2.8-1.6-5.2-3.5-5.6L97,57.9v4.9L112.7,65.8z"
			/>
		<path class="st0" d="M14.6,67c0-2.4,2.1-5,3.9-5.2l86.7-3.8c0.7,0,1.2,0.7,1.2,1.5l0,14.9c0,0.9-0.5,1.5-1.2,1.5l-86.7-3.8
			C16.8,72,14.6,69.4,14.6,67L14.6,67z"/>
		<path class="st1" d="M17.6,66.8l87-4.5c0.7,0,1.4,0.7,1.4,1.5v-4.4c0-0.9-0.8-1.6-1.4-1.5l-86.2,3.8c-1.8,0.1-4,2.8-4,5.2l0,0
			c0,0.8,0.1,1.5,0.4,2.2C15.4,67.8,16.4,66.9,17.6,66.8z"/>
		<path class="st0" d="M122.7,58.2c-5.1,0-9.2,3.9-9.2,8.8c0,4.9,4.1,8.8,9.2,8.8c2.9,0,5.6-1.3,7.2-3.4l0,0c2.8-4.6,6.7-3,9.2-3
			c0.9,0,1.8,0.2,2.7,0.5c-0.9-3.5-7.4-7.5-11.1-9.6C127.5,58.4,124,58.2,122.7,58.2z"/>
		<path class="st1" d="M117.5,73.2c0,0.4,0,0.7,0.1,1.1c1.5,1,3.2,1.5,5.2,1.5c2.9,0,5.6-1.3,7.2-3.4l0,0c2.8-3.9,6.7-3,9.2-3
			c0.9,0,1.8,0.2,2.7,0.5c0-0.1-0.1-0.2-0.1-0.3c-1.2-1.2-2.5-2.3-3.9-3.1c-3.2-1.9-9.9-2.1-11.2-2.1
			C121.6,64.4,117.5,68.4,117.5,73.2z"/>
	</g>
</g>
</svg>
