<?xml version="1.0" encoding="utf-8"?>
<!-- Generator: Adobe Illustrator 19.0.1, SVG Export Plug-In . SVG Version: 6.00 Build 0)  -->
<svg version="1.1" id="Layer_1" xmlns="http://www.w3.org/2000/svg" xmlns:xlink="http://www.w3.org/1999/xlink" x="0px" y="0px"
	 viewBox="485 -55 964 140" style="enable-background:new 485 -55 964 140;" xml:space="preserve">
<style type="text/css">
	.st0{fill:#A0D1DE;}
	.st1{fill:#555555;}
	.st2{fill:#FFFFFF;}
	.st3{fill:#79BBCE;}
	.st4{fill:#263238;}
	.st5{fill:#EC2227;}
	.st6{fill:none;}
</style>
<path class="st0" d="M692.5,49V-18H706V49H692.5z M740.8,0.5v10.3H732v19.5c0,4,0.1,6.2,0.3,6.9s0.6,1.2,1.1,1.6
	c0.6,0.5,1.3,0.7,2.2,0.7c1.2,0,2.9-0.4,5.2-1.2l1.1,10c-3,1.3-6.4,1.9-10.2,1.9c-2.4,0-4.4-0.4-6.2-1.1c-1.9-0.8-3.2-1.8-4.1-3
	s-1.5-2.9-1.8-5c-0.3-1.5-0.4-4.5-0.4-9V10.7h-5.9V0.5h5.9v-9.7l12.9-7.4V0.5C732.2,0.5,740.8,0.5,740.8,0.5z M744.9,35.1l12.9-2
	c0.6,2.5,1.7,4.4,3.3,5.7c1.6,1.2,4.1,2,7.1,2c3.3,0,5.8-0.6,7.4-1.8c1.1-0.8,1.7-2,1.7-3.4c0-0.9-0.3-1.8-0.9-2.5
	c-0.7-0.6-2.1-1.1-4.3-1.7c-10.4-2.3-16.9-4.3-19.7-6.2c-3.9-2.6-5.7-6.2-5.7-10.9c0-4.2,1.7-7.7,5-10.6c3.3-2.8,8.5-4.3,15.5-4.3
	c6.6,0,11.6,1,14.8,3.2s5.5,5.4,6.7,9.6l-12.1,2.3c-0.5-1.9-1.5-3.3-2.9-4.3s-3.5-1.5-6.2-1.5c-3.4,0-5.8,0.5-7.3,1.4
	c-0.9,0.7-1.5,1.5-1.5,2.6c0,0.9,0.5,1.7,1.3,2.4c1.1,0.8,5.2,2.1,12,3.6c6.9,1.5,11.6,3.5,14.3,5.7c2.6,2.3,4.1,5.5,4.1,9.5
	c0,4.4-1.9,8.3-5.6,11.5c-3.7,3.2-9.2,4.8-16.5,4.8c-6.6,0-11.9-1.3-15.6-4.1C748.6,43.4,746,39.7,744.9,35.1z M810.7,15.3L799,13.2
	c1.3-4.7,3.6-8.2,6.8-10.4c3.2-2.3,7.9-3.4,14.2-3.4c5.7,0,10,0.7,12.8,2.1c2.8,1.3,4.8,3.1,5.9,5.2s1.7,5.9,1.7,11.5l-0.1,15
	c0,4.2,0.2,7.4,0.7,9.4c0.4,2,1.2,4.2,2.3,6.5h-12.7c-0.4-0.8-0.8-2.1-1.2-3.8c-0.2-0.8-0.4-1.2-0.5-1.5c-2.2,2.2-4.5,3.8-7.1,4.8
	c-2.5,1-5.2,1.6-8,1.6c-5,0-9-1.3-11.8-4.1c-2.9-2.7-4.3-6.1-4.3-10.3c0-2.7,0.7-5.2,2-7.4c1.3-2.2,3.1-3.8,5.5-4.9
	c2.4-1.1,5.7-2.2,10.2-3c6-1.1,10.2-2.2,12.4-3.1v-1.3c0-2.5-0.6-4.2-1.8-5.3s-3.5-1.6-6.9-1.6c-2.3,0-4.1,0.5-5.4,1.3
	S811.6,13,810.7,15.3z M828,25.7c-1.6,0.6-4.2,1.2-7.8,2c-3.6,0.8-5.9,1.5-7,2.3c-1.7,1.2-2.5,2.7-2.5,4.5c0,1.8,0.7,3.4,2,4.6
	c1.3,1.3,3,2,5.1,2c2.4,0,4.5-0.8,6.6-2.3c1.5-1.1,2.5-2.5,3-4.2c0.4-1.1,0.5-3.2,0.5-6.2v-2.6H828z M851,49V-18h21.7
	c8.2,0,13.6,0.4,16.1,1c3.9,1,7.1,3.2,9.6,6.6c2.5,3.4,3.9,7.7,3.9,13c0,4.1-0.8,7.5-2.3,10.4c-1.5,2.8-3.4,5-5.7,6.6
	c-2.3,1.6-4.6,2.6-7,3.2c-3.2,0.7-7.9,0.9-14,0.9h-8.9v25.3L851,49L851,49z M864.4-6.7v19h7.4c5.4,0,8.9-0.4,10.7-1
	c1.8-0.7,3.2-1.8,4.2-3.3s1.5-3.2,1.5-5.2c0-2.5-0.8-4.4-2.2-6s-3.2-2.5-5.5-2.9c-1.6-0.3-4.9-0.5-9.7-0.5L864.4-6.7L864.4-6.7z
	 M905.5,24.1c0-4.2,1-8.4,3.1-12.3c2.1-4,5.1-7.1,9-9.1s8.1-3.1,12.9-3.1c7.4,0,13.4,2.4,18,7.2c4.7,4.8,7.1,10.7,7.1,18.1
	s-2.4,13.4-7.1,18.3c-4.7,4.8-10.7,7.3-17.9,7.3c-4.4,0-8.7-1-12.7-3s-7.1-5-9.2-8.9C906.7,34.4,905.5,29.6,905.5,24.1z M918.7,24.7
	c0,4.8,1.1,8.5,3.4,11c2.3,2.5,5.1,3.9,8.5,3.9c3.4,0,6.1-1.3,8.4-3.9s3.4-6.3,3.4-11.1c0-4.7-1.1-8.4-3.4-10.9s-5.1-3.9-8.4-3.9
	c-3.3,0-6.1,1.3-8.5,3.9C919.8,16.3,918.7,19.9,918.7,24.7z M960.9,35.1l12.9-2c0.6,2.5,1.7,4.4,3.3,5.7c1.6,1.2,4.1,2,7.1,2
	c3.3,0,5.8-0.6,7.4-1.8c1.1-0.8,1.7-2,1.7-3.4c0-0.9-0.3-1.8-0.9-2.5c-0.7-0.6-2.1-1.1-4.3-1.7c-10.4-2.3-16.9-4.3-19.7-6.2
	c-3.8-2.6-5.7-6.3-5.7-10.9c0-4.2,1.7-7.7,5-10.6c3.3-2.8,8.5-4.3,15.5-4.3c6.6,0,11.6,1,14.8,3.2c3.2,2.2,5.5,5.4,6.7,9.6
	l-12.1,2.3c-0.5-1.9-1.5-3.3-2.9-4.3s-3.5-1.5-6.2-1.5c-3.4,0-5.8,0.5-7.3,1.4c-0.9,0.7-1.5,1.5-1.5,2.6c0,0.9,0.5,1.7,1.3,2.4
	c1.1,0.8,5.2,2.1,12,3.6c6.9,1.5,11.6,3.5,14.3,5.7c2.6,2.3,4.1,5.5,4.1,9.5c0,4.4-1.9,8.3-5.6,11.5c-3.7,3.2-9.2,4.8-16.5,4.8
	c-6.6,0-11.9-1.3-15.6-4.1C964.6,43.4,962.1,39.7,960.9,35.1z M1039.4,0.5v10.3h-8.8v19.5c0,4,0.1,6.2,0.3,6.9s0.6,1.2,1.1,1.6
	c0.6,0.5,1.3,0.7,2.2,0.7c1.2,0,2.9-0.4,5.2-1.2l1.1,10c-3,1.3-6.4,1.9-10.2,1.9c-2.4,0-4.4-0.4-6.2-1.1c-1.9-0.8-3.2-1.8-4.1-3
	c-0.8-1.2-1.5-2.9-1.8-5c-0.3-1.5-0.4-4.5-0.4-9V10.7h-5.9V0.5h5.9v-9.7l12.9-7.4V0.5C1030.8,0.5,1039.4,0.5,1039.4,0.5z"/>
<path class="st1" d="M1090.3,14.8l-12.6,2.3c-0.5-2.5-1.4-4.4-2.9-5.7c-1.5-1.3-3.5-1.9-5.8-1.9c-3.2,0-5.7,1.1-7.6,3.3
	s-2.8,5.9-2.8,11.1c0,5.7,0.9,9.8,2.9,12.2s4.5,3.6,7.8,3.6c2.5,0,4.4-0.7,5.9-2.1s2.6-3.8,3.3-7.2l12.6,2.2
	c-1.3,5.7-3.9,10.2-7.5,13.1c-3.7,2.9-8.7,4.4-14.9,4.4c-7.1,0-12.7-2.3-17-6.7c-4.2-4.4-6.3-10.7-6.3-18.6c0-8,2.1-14.2,6.3-18.7
	c4.2-4.4,10-6.7,17.2-6.7c5.9,0,10.7,1.2,14,3.8C1086.3,5.7,1088.8,9.7,1090.3,14.8z M1109.3,15.3l-11.7-2.1
	c1.3-4.7,3.6-8.2,6.8-10.4c3.2-2.3,7.9-3.4,14.2-3.4c5.7,0,10,0.7,12.8,2.1c2.8,1.3,4.8,3.1,5.9,5.2c1.1,2.1,1.7,5.9,1.7,11.5
	l-0.1,15c0,4.2,0.2,7.4,0.7,9.4c0.4,2,1.2,4.2,2.3,6.5h-12.7c-0.4-0.8-0.8-2.1-1.2-3.8c-0.2-0.8-0.4-1.2-0.5-1.5
	c-2.2,2.2-4.5,3.8-7.1,4.8c-2.5,1-5.2,1.6-8,1.6c-5,0-9-1.3-11.8-4.1c-2.9-2.7-4.3-6.1-4.3-10.3c0-2.7,0.7-5.2,2-7.4
	c1.3-2.2,3.1-3.8,5.5-4.9s5.7-2.2,10.2-3c6-1.1,10.2-2.2,12.4-3.1v-1.3c0-2.5-0.6-4.2-1.8-5.3c-1.2-1-3.5-1.6-6.9-1.6
	c-2.3,0-4.1,0.5-5.4,1.3C1111,11.5,1110.2,13,1109.3,15.3z M1126.6,25.7c-1.6,0.6-4.2,1.2-7.8,2s-5.9,1.5-7,2.3
	c-1.7,1.2-2.5,2.7-2.5,4.5c0,1.8,0.7,3.4,2,4.6c1.3,1.3,3,2,5.1,2c2.4,0,4.5-0.8,6.6-2.3c1.5-1.1,2.5-2.5,3-4.2
	c0.4-1.1,0.5-3.2,0.5-6.2v-2.6H1126.6z M1163.8,49H1151V0.5h11.9v6.9c2.1-3.3,3.9-5.4,5.5-6.4c1.6-1,3.5-1.5,5.6-1.5
	c2.9,0,5.7,0.8,8.5,2.5l-4,11.2c-2.2-1.4-4.1-2.1-6-2.1c-1.8,0-3.3,0.5-4.5,1.5c-1.2,0.9-2.3,2.7-2.9,5.4c-0.8,2.5-1,8-1,16.3
	L1163.8,49L1163.8,49z M1232.1,49h-11.9v-7.2c-2,2.7-4.3,4.8-7,6.2c-2.7,1.3-5.4,2.1-8.1,2.1c-5.6,0-10.4-2.3-14.3-6.7
	c-4-4.5-5.9-10.7-5.9-18.8c0-8.2,2-14.5,5.8-18.8c3.9-4.2,8.8-6.4,14.7-6.4c5.5,0,10.1,2.3,14,6.8V-18h12.8V49H1232.1z M1197.8,23.7
	c0,5.2,0.8,9,2.2,11.2c2.1,3.4,5,5,8.7,5c2.9,0,5.5-1.2,7.5-3.8c2.1-2.5,3.1-6.2,3.1-11.2c0-5.6-1-9.6-3-12.1
	c-2-2.5-4.6-3.7-7.7-3.7c-3,0-5.6,1.2-7.6,3.7S1197.8,18.9,1197.8,23.7z M1240.1,49V36.1h12.8V49H1240.1z M1303.7,14.8l-12.6,2.3
	c-0.5-2.5-1.4-4.4-2.9-5.7c-1.5-1.3-3.5-1.9-5.8-1.9c-3.2,0-5.7,1.1-7.6,3.3c-1.9,2.2-2.8,5.9-2.8,11.1c0,5.7,0.9,9.8,2.9,12.2
	c2,2.4,4.5,3.6,7.8,3.6c2.5,0,4.4-0.7,5.9-2.1s2.6-3.8,3.3-7.2l12.6,2.2c-1.3,5.7-3.9,10.2-7.5,13.1c-3.7,2.9-8.7,4.4-14.9,4.4
	c-7.1,0-12.7-2.3-17-6.7c-4.2-4.4-6.3-10.7-6.3-18.6c0-8,2.1-14.2,6.3-18.7s10-6.7,17.2-6.7c5.9,0,10.7,1.2,14,3.8
	C1299.7,5.7,1302.2,9.7,1303.7,14.8z M1310.2,24.1c0-4.2,1-8.4,3.1-12.3c2.1-4,5.1-7.1,9-9.1c3.9-2.1,8.1-3.1,12.9-3.1
	c7.4,0,13.4,2.4,18,7.2c4.7,4.8,7.1,10.7,7.1,18.1s-2.4,13.4-7.1,18.3c-4.7,4.8-10.7,7.3-17.9,7.3c-4.4,0-8.7-1-12.7-3
	c-4.1-2-7.1-5-9.2-8.9C1311.2,34.4,1310.2,29.6,1310.2,24.1z M1323.4,24.7c0,4.8,1.1,8.5,3.4,11c2.3,2.5,5.1,3.9,8.5,3.9
	c3.4,0,6.1-1.3,8.4-3.9c2.3-2.5,3.4-6.3,3.4-11.1c0-4.7-1.1-8.4-3.4-10.9c-2.3-2.5-5.1-3.9-8.4-3.9c-3.3,0-6.1,1.3-8.5,3.9
	S1323.4,19.9,1323.4,24.7z M1369.1,0.5h11.9v6.6c4.2-5.2,9.2-7.7,15.1-7.7c3.1,0,5.8,0.7,8.1,1.9c2.3,1.3,4.1,3.2,5.7,5.8
	c2.2-2.5,4.4-4.5,6.9-5.8c2.5-1.3,5.1-1.9,7.9-1.9c3.6,0,6.6,0.8,9,2.2s4.3,3.6,5.6,6.4c0.8,2.1,1.3,5.5,1.3,10.1v31h-12.8V21.2
	c0-4.8-0.5-7.9-1.3-9.3c-1.2-1.8-3-2.7-5.5-2.7c-1.8,0-3.5,0.6-5.1,1.6c-1.6,1-2.7,2.7-3.4,4.8c-0.7,2.1-1,5.5-1,10v23.3h-12.8V22.4
	c0-4.7-0.2-7.7-0.7-9.1s-1.1-2.4-2.2-3c-1-0.7-2.3-1-3.9-1c-2,0-3.8,0.6-5.4,1.6c-1.6,1-2.7,2.6-3.4,4.6c-0.7,2-1,5.4-1,10V49h-12.8
	V0.5H1369.1z"/>
<g id="Layer_1_1_">
	<path class="st2" d="M660.1-3.4c-1.5-2.1-4.1-2.9-6.8-2.9h-23c-0.7,0-3.7-1.5-4.7-2.1c-3.8-2.5-5.5-2.1-7.4-2.1h-31.3v0.3h-22.6
		v-0.3h-3.6c-12.7,0-23,9.1-23,21v37.3c0,0.9,0.8,1.3,1.8,1.3h95.4c1,0,2.5-0.4,2.5-1.3V45H636c5.8,0,11-3.5,12.9-8.8l12.1-32
		C662,1.7,661.6-1.3,660.1-3.4z"/>
	<g>
		<path class="st3" d="M594.5,22.1h24.1c0.4,0,0.8-0.4,0.8-0.8v-1.6c0-0.4-0.4-0.8-0.8-0.8h-24.1V22.1z"/>
		<path class="st3" d="M594.5,29.8h21.2c0.4,0,0.8-0.4,0.8-0.8v-1.6c0-0.4-0.4-0.8-0.8-0.8h-21.2V29.8z"/>
		<path class="st3" d="M594.5,37h18.4c0.4,0,0.8-0.4,0.8-0.8v-1.6c0-0.4-0.4-0.8-0.8-0.8h-18.4V37z"/>
	</g>
	<path class="st4" d="M634.1,0.7h17.6c1.8,0,3.1,1.8,2.5,3.5l-4.1,9.9c-0.4,1.1-1.4,1.8-2.5,1.8H630c-1.8,0-3.1-1.8-2.5-3.5l4.1-9.9
		C631.9,1.5,632.9,0.7,634.1,0.7z"/>
	<path class="st5" d="M565.8,12.7c-0.8,0-1.6-0.2-2.3-0.5c-1.4-0.6-2.5-1.7-3-3.2c-0.5-1.4-0.5-3,0.1-4.4l22.2-48.7
		c0.5-1,1.5-1.6,2.6-1.6c0.4,0,0.8,0.1,1.1,0.2l17.9,7.9c0.7,0.3,1.2,0.9,1.5,1.6s0.2,1.5-0.1,2.2l-5.5,12.3c-0.5,1-1.5,1.6-2.6,1.6
		c-0.4,0-0.7-0.1-1-0.2l-11-4.3L571.1,9.2C570.1,11.4,568,12.7,565.8,12.7z"/>
	<path class="st4" d="M662.2-4.4c-1.6-2.2-4.1-3.5-6.8-3.5h-25.3c-0.7-0.7-1.5-1.5-2.5-2.2c-3.8-2.6-7.8-2.9-9.7-2.9
		c-11,0-24.8,0-35.9,0l4.3-9.8l9.9,3.9c0.5,0.2,1,0.3,1.5,0.3c1.6,0,3-0.9,3.7-2.5l5.5-12.3c0.4-1,0.5-2.1,0.1-3.1
		c-0.4-1-1.2-1.8-2.1-2.3l-17.9-7.9c-0.5-0.2-1.1-0.3-1.6-0.3l0,0c-1.6,0-3,0.9-3.7,2.5l-14.3,31.6h-9.2
		c-12.7,0-23.1,10.4-23.1,23.1v39.6c0,1,0.8,1.8,1.8,1.8h100.1c1,0,1.8-0.8,1.8-1.8v-3.3h-0.6c5.8,0,11-3.7,13-9.2l12.2-34.2
		C664,0.6,663.7-2.3,662.2-4.4z M583.8-43.6c0.3-0.6,0.8-0.9,1.4-0.9c0.2,0,0.4,0,0.6,0.1l18,7.9c0.8,0.3,1.1,1.3,0.8,2.1l-5.5,12.3
		c-0.3,0.6-0.8,0.9-1.4,0.9c-0.2,0-0.4,0-0.6-0.1l-12.2-4.8L569.8,8.7c-0.7,1.7-2.5,2.7-4.1,2.7c-0.6,0-1.2-0.1-1.8-0.4
		c-2.3-1-3.3-3.7-2.3-5.9L583.8-43.6z M588.6,46.5h-47.9l-0.1-36.4c0-9.9,8-18,18-18h6.3l-5.5,12.1c-0.8,1.7-0.8,3.6-0.2,5.3
		c0.7,1.7,2,3.1,3.7,3.9c0.9,0.4,1.8,0.6,2.8,0.6c2.8,0,5.3-1.6,6.4-4.2l7.4-17h20.7c0,0-3.4,1.2-6.5,4.3c-5,5.1-4.9,12.3-5.1,14.2
		v35.2L588.6,46.5L588.6,46.5L588.6,46.5z M659.7,1.9l-12.2,34.2c-1.4,4.1-5.3,6.7-9.5,6.7h-43.6V13c0.2-2.5,0.1-7.5,2.9-11.5
		c3.2-3.6,7.8-5.9,13-5.9h45.1C658.5-4.3,660.8-1.1,659.7,1.9z"/>
</g>
<rect x="485" y="-55" class="st6" width="964" height="140"/>
</svg>
