<?xml version="1.0" encoding="utf-8"?>
<!-- Generator: Adobe Illustrator 19.0.1, SVG Export Plug-In . SVG Version: 6.00 Build 0)  -->
<svg version="1.1" id="Layer_1" xmlns="http://www.w3.org/2000/svg" xmlns:xlink="http://www.w3.org/1999/xlink" x="0px" y="0px"
	 viewBox="357 546 850 160" style="enable-background:new 357 546 850 160;" xml:space="preserve">
<style type="text/css">
	.st0{fill:none;}
	.st1{opacity:0.69;}
	.st2{fill:#A0D1DE;}
	.st3{fill:#FFFFFF;}
	.st4{fill:#79BBCE;}
	.st5{fill:#263238;}
	.st6{fill:#EC2227;}
</style>
<g id="Layer_1_1_">
	<rect x="357" y="546" class="st0" width="850" height="160"/>
	<g class="st1">
		<path class="st2" d="M990.7,631.7c-0.9-6-4.4-8.9-10.5-8.9c-9.1,0-12.1,9.3-12.1,16.8s2.9,16.3,11.8,16.3
			c6.7,0,10.4-4.1,11.3-10.5h13.7c-1.9,13.7-11.2,21.2-24.9,21.2c-15.6,0-26.1-11-26.1-26.5c0-16.1,9.6-28,26.4-28
			c12.2,0,23.5,6.4,24.4,19.6L990.7,631.7L990.7,631.7L990.7,631.7z"/>
		<path class="st2" d="M1012.1,629.5c0.9-13.2,12.7-17.3,24.4-17.3c10.3,0,22.8,2.3,22.8,14.7v26.9c0,4.7,0.5,9.4,1.8,11.5h-14.4
			c-0.5-1.6-0.9-3.3-1-5c-4.5,4.7-11,6.4-17.4,6.4c-9.9,0-17.7-4.9-17.7-15.5c0.2-23.5,35-11,34.5-22.5c0-6-4.3-7-9.3-7
			c-5.5,0-8.9,2.2-9.4,7.8L1012.1,629.5L1012.1,629.5L1012.1,629.5z M1044.9,639.9c-2.4,2.1-7.4,2.2-11.8,3
			c-4.4,0.9-8.4,2.4-8.4,7.6s4.1,6.6,8.7,6.6c11.1,0,11.5-8.7,11.5-11.9L1044.9,639.9L1044.9,639.9z"/>
		<path class="st2" d="M1069.7,613.5h13.5v9.6h0.2c2.7-6.5,9.4-11,16.5-11c1.1,0,2.1,0.2,3.1,0.5v13.2c-1.3-0.3-3.4-0.5-5.1-0.5
			c-10.5,0-14,7.4-14,16.6v23.3h-14.3L1069.7,613.5L1069.7,613.5L1069.7,613.5z"/>
		<path class="st2" d="M1145.3,658.6h-0.3c-3.3,5.6-9,8-15.7,8c-15.6,0-23.2-13.3-23.2-27.8c0-13.9,7.7-26.8,22.9-26.8
			c6.1,0,12.1,2.6,15.3,7.7h0.2v-25.8h14.3v71.5h-13.5L1145.3,658.6L1145.3,658.6z M1132.9,622.9c-9.3,0-12.5,8.1-12.5,16.5
			c0,8.1,3.7,16.6,12.5,16.6c9.3,0,12.2-8.2,12.2-16.7C1145,630.9,1142.1,622.9,1132.9,622.9z"/>
	</g>
	<path class="st3" d="M542,612.3c-1.6-2.2-4.4-3.1-7.2-3.1h-24.4c-0.7,0-3.9-1.6-5-2.2c-4-2.7-5.8-2.2-7.9-2.2h-33.2v0.3h-24v-0.3
		h-3.8c-13.5,0-24.4,9.7-24.4,22.3v39.6c0,1,0.9,1.4,1.9,1.4h101.2c1.1,0,2.6-0.4,2.6-1.4v-3.1h-1.4c6.2,0,11.7-3.7,13.7-9.3
		l12.8-34C544,617.7,543.6,614.5,542,612.3z"/>
	<g>
		<path class="st4" d="M472.4,639.3H498c0.4,0,0.9-0.4,0.9-0.9v-1.7c0-0.4-0.4-0.9-0.9-0.9h-25.6V639.3z"/>
		<path class="st4" d="M472.4,647.5h22.5c0.4,0,0.9-0.4,0.9-0.9v-1.7c0-0.4-0.4-0.9-0.9-0.9h-22.5V647.5z"/>
		<path class="st4" d="M472.4,655.1h19.5c0.4,0,0.9-0.4,0.9-0.9v-1.7c0-0.4-0.4-0.9-0.9-0.9h-19.5V655.1z"/>
	</g>
	<path class="st5" d="M514.4,616.6h18.7c1.9,0,3.3,1.9,2.7,3.7l-4.3,10.5c-0.4,1.2-1.5,1.9-2.7,1.9h-18.7c-1.9,0-3.3-1.9-2.7-3.7
		l4.3-10.5C512.1,617.4,513.2,616.6,514.4,616.6z"/>
	<path class="st6" d="M442,629.3c-0.9,0-1.7-0.2-2.4-0.5c-1.5-0.6-2.7-1.8-3.2-3.4c-0.5-1.5-0.5-3.2,0.1-4.7L460,569
		c0.5-1.1,1.6-1.7,2.8-1.7c0.4,0,0.9,0.1,1.2,0.2l19,8.4c0.7,0.3,1.3,1,1.6,1.7c0.3,0.7,0.2,1.6-0.1,2.3l-5.8,13
		c-0.5,1.1-1.6,1.7-2.8,1.7c-0.4,0-0.7-0.1-1.1-0.2l-11.7-4.6l-15.5,35.8C446.5,627.9,444.3,629.3,442,629.3z"/>
	<path class="st5" d="M544.2,611.2c-1.7-2.3-4.4-3.7-7.2-3.7h-26.8c-0.7-0.7-1.6-1.6-2.7-2.3c-4-2.8-8.3-3.1-10.3-3.1
		c-11.7,0-26.3,0-38.1,0l4.6-10.4l10.5,4.1c0.5,0.2,1.1,0.3,1.6,0.3c1.7,0,3.2-1,3.9-2.6l5.8-13c0.4-1.1,0.5-2.2,0.1-3.3
		s-1.3-1.9-2.2-2.4l-19-8.4c-0.5-0.2-1.2-0.3-1.7-0.3l0,0c-1.7,0-3.2,1-3.9,2.6l-15.2,33.5h-9.8c-13.5,0-24.5,11-24.5,24.5v42
		c0,1.1,0.9,1.9,1.9,1.9h106.2c1.1,0,1.9-0.9,1.9-1.9v-3.5h-0.6c6.2,0,11.7-3.9,13.8-9.8l12.9-36.3
		C546.2,616.5,545.8,613.4,544.2,611.2z M461.1,569.6c0.3-0.6,0.9-1,1.5-1c0.2,0,0.4,0,0.6,0.1l19.1,8.4c0.9,0.3,1.2,1.4,0.9,2.2
		l-5.8,13c-0.3,0.6-0.9,1-1.5,1c-0.2,0-0.4,0-0.6-0.1l-12.9-5.1l-16.2,37c-0.7,1.8-2.6,2.9-4.4,2.9c-0.6,0-1.3-0.1-1.9-0.4
		c-2.4-1.1-3.5-3.9-2.4-6.3L461.1,569.6z M466.2,665.2h-50.8l-0.1-38.6c0-10.5,8.5-19.1,19.1-19.1h6.7l-5.8,12.8
		c-0.9,1.8-0.9,3.8-0.2,5.6c0.7,1.8,2.1,3.3,3.9,4.1c1,0.4,1.9,0.6,3,0.6c3,0,5.6-1.7,6.8-4.5l7.9-18h22c0,0-3.6,1.3-6.9,4.6
		c-5.3,5.4-5.2,13-5.4,15.1v37.3h-0.2V665.2z M541.6,617.9l-12.9,36.3c-1.5,4.3-5.6,7.1-10.1,7.1h-46.3v-31.6
		c0.2-2.6,0.1-8,3.1-12.2c3.4-3.8,8.3-6.3,13.8-6.3H537C540.3,611.3,542.8,614.7,541.6,617.9z"/>
	<path class="st2" d="M589.4,605.6h-14.3v-11.7h14.3V605.6z M575.1,613.5h14.3v51.7h-14.3V613.5z"/>
	<path class="st2" d="M618.2,613.5h10.4v9.5h-10.4v25.6c0,4.8,1.2,6,6,6c1.6,0,3.1-0.1,4.4-0.4v11.1c-2.4,0.4-5.5,0.5-8.3,0.5
		c-8.8,0-16.3-1.9-16.3-12.3v-30.3h-8.6v-9.5h8.6V598h14.3L618.2,613.5L618.2,613.5z"/>
	<path class="st2" d="M646.1,648.4c0,6.1,5.4,8.7,11,8.7c4,0,9.3-1.6,9.3-6.6c0-4.3-6-5.8-16.1-8c-8.3-1.9-16.4-4.6-16.4-13.8
		c0-13.2,11.4-16.6,22.5-16.6s21.7,3.8,22.8,16.5h-13.5c-0.4-5.5-4.6-7-9.7-7c-3.2,0-7.9,0.5-7.9,4.8c0,5.1,8.1,5.8,16.1,7.7
		c8.3,1.9,16.4,4.9,16.4,14.5c0,13.6-11.9,18-23.6,18c-12,0-23.8-4.5-24.4-18.2L646.1,648.4L646.1,648.4z"/>
	<path class="st2" d="M687.9,629.5c0.9-13.2,12.7-19.5,24.4-19.5c10.3,0,22.8,4.5,22.8,16.8v26.9c0,4.7,0.5,9.4,1.8,11.5h-14.4
		c-0.5-1.6-0.9-3.3-1-5c-4.5,4.7-11,6.4-17.4,6.4c-9.9,0-17.7-4.9-17.7-15.5c0.2-23.5,35-11,34.5-22.5c0-6-4.3-7-9.3-7
		c-5.5,0-8.9,2.2-9.4,7.8L687.9,629.5L687.9,629.5L687.9,629.5z M720.7,639.9c-2.4,2.1-7.4,2.2-11.8,3c-4.4,0.9-8.4,2.4-8.4,7.6
		s4.1,6.6,8.7,6.6c11.1,0,11.5-8.7,11.5-11.9V639.9z"/>
	<path class="st2" d="M745.6,613.5h13.5v6.6h0.2c3.5-5.6,9-8,15.4-8c16.2,0,23.5,13.1,23.5,27.8c0,13.8-7.6,26.7-22.8,26.7
		c-6.3,0-12-2.7-15.5-7.8h-0.2v24.7h-14.3v-70H745.6z M784.1,639.6c0-8.3-3.3-16.7-12.4-16.7c-9.3,0-12.3,8.3-12.3,16.7
		s3.2,16.4,12.4,16.4S784.1,648,784.1,639.6z"/>
	<path class="st2" d="M831.5,612.1c16.3,0,26.8,10.8,26.8,27.3c0,16.4-10.5,27.2-26.8,27.2c-16.2,0-26.7-10.8-26.7-27.2
		C804.8,623,815.4,612.1,831.5,612.1z M831.5,656c9.7,0,12.7-8.2,12.7-16.5s-3-16.6-12.7-16.6c-9.6,0-12.5,8.3-12.5,16.6
		S821.9,656,831.5,656z"/>
	<path class="st2" d="M878.2,648.4c0,6.1,5.4,8.7,11,8.7c4,0,9.3-1.6,9.3-6.6c0-4.3-6-5.8-16.1-8c-8.3-1.9-16.4-4.6-16.4-13.8
		c0-13.2,11.4-16.6,22.5-16.6s21.7,3.8,22.8,16.5h-13.5c-0.4-5.5-4.6-7-9.7-7c-3.2,0-7.9,0.5-7.9,4.8c0,5.1,8.1,5.8,16.1,7.7
		c8.3,1.9,16.4,4.9,16.4,14.5c0,13.6-11.9,18-23.6,18c-12,0-23.8-4.5-24.4-18.2L878.2,648.4L878.2,648.4L878.2,648.4z"/>
	<path class="st2" d="M938.6,613.5H949v9.5h-10.4v25.6c0,4.8,1.2,6,6,6c1.6,0,3.1-0.1,4.4-0.4v11.1c-2.4,0.4-5.5,0.5-8.3,0.5
		c-8.8,0-16.3-1.9-16.3-12.3v-30.3h-8.6v-9.5h8.6V598h14.3v15.5H938.6z"/>
</g>
<g id="Layer_2">
</g>
</svg>
