<?xml version="1.0" encoding="utf-8"?>
<!-- Generator: Adobe Illustrator 19.0.1, SVG Export Plug-In . SVG Version: 6.00 Build 0)  -->
<svg version="1.1" id="ARTWORK" xmlns="http://www.w3.org/2000/svg" xmlns:xlink="http://www.w3.org/1999/xlink" x="0px" y="0px"
	 viewBox="0 0 55 55" style="enable-background:new 0 0 55 55;" xml:space="preserve">
<style type="text/css">
	.st0{fill:#A4D0DC;}
</style>
<g>
	<path class="st0" d="M34.8,23.8c0-6.1-4.9-11-11-11c-6.1,0-11,4.9-11,11c0,6.1,4.9,11,11,11C29.9,34.8,34.8,29.9,34.8,23.8
		L34.8,23.8z M23.8,32.1c-4.5,0-8.2-3.7-8.2-8.2c0-4.5,3.7-8.2,8.2-8.2c4.5,0,8.2,3.7,8.2,8.2C32.1,28.4,28.4,32.1,23.8,32.1
		L23.8,32.1z M23.8,32.1"/>
	<path class="st0" d="M41.3,37.5l-6.7-6.7c-1,1.6-2.3,2.9-3.9,3.9l6.7,6.7c1.1,1.1,2.8,1.1,3.9,0C42.4,40.3,42.4,38.5,41.3,37.5
		L41.3,37.5z M41.3,37.5"/>
</g>
</svg>
