<?xml version="1.0" encoding="utf-8"?>
<!-- Generator: Adobe Illustrator 19.0.1, SVG Export Plug-In . SVG Version: 6.00 Build 0)  -->
<svg version="1.1" id="Layer_1" xmlns="http://www.w3.org/2000/svg" xmlns:xlink="http://www.w3.org/1999/xlink" x="0px" y="0px"
	 viewBox="165 -175 379 400" style="enable-background:new 165 -175 379 400;" xml:space="preserve">
<style type="text/css">
	.st0{display:none;clip-path:url(#SVGID_2_);fill:#CEE4EB;}
	.st1{fill:#79BBCE;}
	.st2{fill:#B9DAE3;}
	.st3{fill:#37474F;}
	.st4{fill:#CEAB97;}
	.st5{fill:#FFFFFF;}
	.st6{fill:#F0D0B4;}
</style>
<g id="TOP_GRAPHIC">
	<g>
		<defs>
			<polygon id="SVGID_1_" points="1287.4,223.9 777.1,223.9 728.9,263.9 677.1,223.9 166.7,223.9 166.7,-174 1287.4,-174 			"/>
		</defs>
		<clipPath id="SVGID_2_">
			<use xlink:href="#SVGID_1_"  style="overflow:visible;"/>
		</clipPath>
		<polygon class="st0" points="1287.4,257.8 777.1,257.8 727,259 677.1,257.8 166.7,257.8 166.7,-174 1287.4,-174 		"/>
	</g>
</g>
<polygon class="st1" points="483.9,225.7 537,162.5 165,162.5 165,225.7 "/>
<rect x="165" y="-175" class="st2" width="195.7" height="63.3"/>
<g>
	<g>
		<path class="st3" d="M318.5,193.1l-8.7,17.6h-4.3l-8.6-17.6v20.2h-7.2v-32.2h9.7l8.3,17.7l8.3-17.7h9.7v32.2h-7.2V193.1z"/>
		<path class="st3" d="M356.8,181.2v6.4h-16v6.6h14.4v6.1h-14.4v6.7h16.5v6.3h-23.7v-32.2h23.2V181.2z"/>
		<path class="st3" d="M386.8,181.2v6.4h-16v6.6h14.4v6.1h-14.4v6.7h16.5v6.3h-23.7v-32.2h23.2V181.2z"/>
		<path class="st3" d="M407.4,187.4v25.9h-7.2v-25.9h-9.1v-6.2h25.4v6.2H407.4z"/>
	</g>
</g>
<g>
	<g>
		<g>
			<path class="st4" d="M439.1-2.1c-0.6-1.3-0.5-6.2-0.5-7.6v-13.9h-59.4v17.3l9.1-1.6L386,42.5l-13.4,22.8v7.4h36.5l-3.4,37.4h21.7
				l15-60.1C442.5,50,446.8,13.4,439.1-2.1z"/>
		</g>
	</g>
	<g>
		<polygon class="st3" points="371.5,-175 372.1,-27.1 410.4,-27.9 446.7,-28.7 446.1,-175 		"/>
		<polygon class="st5" points="377.1,-27.2 377.4,-17 443.3,-19.5 442.7,-28.6 		"/>
		<path class="st5" d="M420.6-47.9c0-2.9,2.4-5.3,5.3-5.3s5.3,2.4,5.3,5.3s-2.4,5.3-5.3,5.3S420.6-45,420.6-47.9z"/>
	</g>
</g>
<g>
	<path class="st6" d="M417.4,57c-0.7,0-1.3-0.3-1.3-1s0.6-2,1.3-2h32c3.6-2,6.4-4.8,6.4-8.5c0-4.6-5.9-9.1-10.6-9.3
		c-0.2,0-0.3-0.2-0.5-0.2h-15.6H370c-1,0,1.5-1.8,1-2.6s-0.5-1.8,0.1-2.6L385,17.5l10.5-10.1c0-0.2,0-0.4,0.2-0.5
		c3-3.4,2.2-9-1.9-10.9c-4.2-2-8.6-1.1-12.2,2.5c-0.1,0.1-0.2,0.3-0.3,0.4l-13.9,11.9l-34.8,31c-0.5,0.7-1.3,1.2-2.1,1.2H311v59
		h13.9c1.4,0,5.1,1.5,6.1,2.5c6.7,6.2,14.9,8,19.3,8.2c0.2,0,3.8,0,4,0l46.3,0.1l16.4-0.1l21,0.3c0.1,0,0.3-0.1,0.4-0.1
		c3.8-0.1,7.1-3.1,6.9-8.1c-0.2-3.2-2.4-5.8-5-6.8h-22.5c-0.7,0-1.3-0.8-1.3-1.5s0.6-1.5,1.3-1.5H450c2.9-1,4.6-5.4,4.6-8.9
		c0-3.4-2.7-7.1-6-8.1h-31.8c-0.7,0-1.2-0.8-1.2-1.5s0.6-1.5,1.2-1.5h35.8c3.6-1,6.2-5.6,5.9-10c-0.3-3.8-3.3-6-6.8-8L417.4,57
		L417.4,57z"/>
	<g>
		<g>
			<polygon class="st3" points="165,33.7 165,108.3 309.2,108.8 310,72.5 310.8,34.2 			"/>
			<polygon class="st5" points="310.7,39.3 320.9,39.5 318.4,105.4 309.3,104.8 			"/>
			<path class="st5" d="M290,82.7c-2.9,0-5.3,2.4-5.3,5.3s2.4,5.3,5.3,5.3s5.3-2.4,5.3-5.3S292.9,82.7,290,82.7z"/>
		</g>
	</g>
</g>
<g>
	<g>
		<path class="st4" d="M375.8,112.9c-0.2,4.3-4,7.7-8.6,7.5l0,0c-4.5-0.2-8.1-3.9-7.9-8.2l0.6-13.5c0.2-4.3,4-7.7,8.6-7.5l0,0
			c4.5,0.2,8.1,3.9,7.9,8.2L375.8,112.9z"/>
		<path class="st4" d="M412.3,115.5c-0.2,4.3-4,7.7-8.5,7.5l0,0c-4.5-0.2-7.9-3.9-7.7-8.2l0.6-13.5c0.2-4.3,4-7.7,8.5-7.5l0,0
			c4.5,0.2,7.9,3.9,7.8,8.2L412.3,115.5z"/>
		<path class="st4" d="M393.6,115c-0.2,4.3-3.9,7.7-8.3,7.5l0,0c-4.4-0.2-7.8-3.9-7.6-8.2l0.6-13.5c0.2-4.3,3.9-7.7,8.3-7.5l0,0
			c4.4,0.2,7.8,3.9,7.6,8.2L393.6,115z"/>
	</g>
	<path class="st4" d="M372.3,36.2h14l25-51.1l-32.1,8.6v2.2c0,0.8-0.4,1.6-1.1,2.1l-27.5,33l-2,27.5c-0.1,0.1-0.3,0.2-0.4,0.3
		c-3.6,3.7-4.5,8-2.5,12.2c1.9,4.1,7.5,4.9,10.9,1.9c0.1-0.1,0.3-0.1,0.5-0.2l10.1-10.5c0,0,2.9-23.5,3.2-24.4
		C371.2,35.9,371.9,35.8,372.3,36.2z"/>
</g>
</svg>
