<?xml version="1.0" encoding="utf-8"?>
<!-- Generator: Adobe Illustrator 19.0.1, SVG Export Plug-In . SVG Version: 6.00 Build 0)  -->
<svg version="1.1" id="Layer_1" xmlns="http://www.w3.org/2000/svg" xmlns:xlink="http://www.w3.org/1999/xlink" x="0px" y="0px"
	 viewBox="252 -175 553 400" style="enable-background:new 252 -175 553 400;" xml:space="preserve">
<style type="text/css">
	.st0{display:none;clip-path:url(#SVGID_2_);fill:#CEE4EB;}
	.st1{fill:#79BBCE;}
	.st2{fill:#37474F;}
	.st3{fill:#F0D0B4;}
	.st4{fill:#6DABBE;}
	.st5{opacity:0.6;fill:#6DABBE;}
	.st6{opacity:0.6;}
	.st7{fill:#FFFFFF;}
	.st8{fill:#A3D1E0;}
	.st9{fill:#435860;}
	.st10{fill:#EC2227;}
</style>
<g id="TOP_GRAPHIC">
	<g>
		<defs>
			<polygon id="SVGID_1_" points="1088.4,223.9 578.1,223.9 529.9,263.9 478.1,223.9 -32.3,223.9 -32.3,-174 1088.4,-174 			"/>
		</defs>
		<clipPath id="SVGID_2_">
			<use xlink:href="#SVGID_1_"  style="overflow:visible;"/>
		</clipPath>
		<polygon class="st0" points="1088.4,257.8 578.1,257.8 528,259 478.1,257.8 -32.3,257.8 -32.3,-174 1088.4,-174 		"/>
	</g>
</g>
<rect x="258.1" y="-175" class="st1" width="541" height="63.3"/>
<g>
	<g>
		<path class="st2" d="M454.9-133c3.5,0,6.4-1.4,8.6-4.2l4.6,4.7c-3.6,4.1-8,6.2-12.9,6.2c-5,0-9-1.6-12.2-4.7
			c-3.2-3.1-4.8-7.1-4.8-11.8s1.6-8.7,4.9-11.9c3.3-3.2,7.3-4.8,12-4.8c5.3,0,9.7,2,13.2,6l-4.5,5.1c-2.3-2.8-5.1-4.2-8.5-4.2
			c-2.7,0-5,0.9-6.9,2.6c-1.9,1.8-2.9,4.1-2.9,7.1s0.9,5.4,2.7,7.2C450.1-133.9,452.3-133,454.9-133z"/>
		<path class="st2" d="M499.9-148.1c0,5.2-2,8.5-6.1,10l8.1,11.5h-8.8l-7.1-10.3h-5v10.3h-7.2v-32.2H486c5,0,8.6,0.8,10.7,2.5
			C498.8-154.6,499.9-151.9,499.9-148.1z M491.3-144.3c0.9-0.8,1.3-2.1,1.3-3.8c0-1.7-0.5-2.9-1.4-3.6c-0.9-0.6-2.5-1-4.8-1H481v9.5
			h5.2C488.7-143.1,490.4-143.5,491.3-144.3z"/>
		<path class="st2" d="M530.4-158.8v6.4h-16v6.6h14.4v6.1h-14.4v6.7H531v6.3h-23.7v-32.1H530.4z"/>
		<path class="st2" d="M560.3-126.6l-3-6.9h-13.5l-3,6.9h-7.6l13.9-32.2h6.9l13.9,32.2H560.3z M550.5-149.2l-4,9.3h8L550.5-149.2z"
			/>
		<path class="st2" d="M582.9-152.6v25.9h-7.2v-25.9h-9.1v-6.2H592v6.2C592-152.6,582.9-152.6,582.9-152.6z"/>
		<path class="st2" d="M620.4-158.8v6.4h-16v6.6h14.4v6.1h-14.4v6.7h16.5v6.3h-23.7v-32.1H620.4z"/>
	</g>
</g>
<path class="st3" d="M378.2,149.5l4.5-10v-27.1c0-9.1,2.9-17.9,8.3-25.3l29.3-39.8L453.8,25l8.5,75.8l-5.6,42.2l-26.3,28.7
	L378.2,149.5z"/>
<g>
	<path class="st2" d="M631.9-38.1H436.5c-12.6,0-22.9,10.3-22.9,22.9v133.7c0,12.6,10.3,22.9,22.9,22.9h195.4
		c12.6,0,22.9-10.3,22.9-22.9V-15.2C654.8-27.8,644.5-38.1,631.9-38.1z"/>
	<polygon class="st4" points="436,-21.3 434.5,-21.3 434.5,124.6 581.9,124.6 632.6,124.6 632.6,-21.3 	"/>
	<g>
		<rect x="445" y="15" class="st1" width="176" height="100"/>
	</g>
	<rect x="448.7" y="26.2" class="st4" width="51.8" height="10.3"/>
	<rect x="564.5" y="94.7" class="st4" width="51.8" height="14.3"/>
	<rect x="504.1" y="94.7" class="st4" width="51.8" height="14.3"/>
	<rect x="448.7" y="59" class="st5" width="51.8" height="10.3"/>
	<rect x="448.7" y="42.8" class="st5" width="51.8" height="10.3"/>
	<g class="st6">
		<g>
			<path class="st4" d="M614.8,44.3v42.4H505.5V44.3H614.8 M616.3,42.8H504v45.4h112.3V42.8L616.3,42.8z"/>
		</g>
	</g>
	<g class="st6">
		<g>
			<path class="st4" d="M580.4,27.7V35h-74.9v-7.3H580.4 M581.9,26.2H504v10.3h77.9V26.2L581.9,26.2z"/>
		</g>
	</g>
	<g class="st6">
		<g>
			<path class="st4" d="M614.8,27.7V35h-27.7v-7.3H614.8 M616.3,26.2h-30.7v10.3h30.7V26.2L616.3,26.2z"/>
		</g>
	</g>
	<rect x="585.7" y="-6.3" class="st1" width="30.7" height="11.6"/>
	<rect x="504" y="-6.3" class="st1" width="77.9" height="11.6"/>
	<g>
		<path class="st7" d="M491-6.6c-0.4-0.6-1.1-0.8-1.8-0.8h-6.2c-0.2,0-1-0.4-1.3-0.6c-1-0.7-1.5-0.6-2-0.6h-8.4v0.1h-6.1v-0.1h-1
			c-3.4,0-6.2,2.6-6.2,6V8.1c0,0.3,0.2,0.4,0.5,0.4h25.8c0.3,0,0.7-0.1,0.7-0.4V7.2h-0.3c1.6,0,3-1,3.5-2.5l3.3-9.2
			C491.5-5.1,491.4-6,491-6.6z"/>
		<g>
			<path class="st8" d="M473.4,0.6l6.4,0c0.1,0,0.3-0.1,0.3-0.3V0c0-0.1-0.1-0.3-0.3-0.3l-6.4,0V0.6z"/>
			<path class="st8" d="M473.4,2.7h5.7c0.1,0,0.3-0.1,0.3-0.3V2.1c0-0.1-0.1-0.3-0.3-0.3h-5.7V2.7z"/>
			<path class="st8" d="M473.4,4.7l4.9,0c0.1,0,0.3-0.1,0.3-0.3V4.1c0-0.1-0.1-0.3-0.3-0.3h-4.9V4.7z"/>
		</g>
		<g>
			<path class="st9" d="M489.8-6.5c0.9,0,1.5,0.9,1.2,1.7l-3.3,9.2c-0.4,1.1-1.4,1.8-2.6,1.8H473v-8c0-2.6,2.1-4.7,4.7-4.7H489.8
				 M489.8-7.5h-12.1c-3.1,0-5.6,2.5-5.6,5.6v8c0,0.5,0.4,1,1,1h12.1c1.6,0,3-1,3.5-2.5l3.3-9.2c0.2-0.7,0.1-1.4-0.3-2
				S490.5-7.5,489.8-7.5L489.8-7.5z"/>
			<path class="st9" d="M484-5.1h4.8c0.5,0,0.8,0.5,0.7,0.9l-1.1,2.7C488.3-1.2,488-1,487.7-1H483c-0.5,0-0.8-0.5-0.7-0.9l1.1-2.7
				C483.5-4.9,483.7-5.1,484-5.1z"/>
		</g>
		<g>
			<path class="st10" d="M465.6-2c-0.2,0-0.4,0-0.6-0.1c-0.4-0.2-0.6-0.4-0.8-0.8s-0.1-0.8,0-1.1l6-13.1c0.1-0.2,0.3-0.4,0.6-0.4
				c0.1,0,0.2,0,0.3,0.1l4.8,2.1c0.2,0.1,0.3,0.2,0.4,0.4s0.1,0.4,0,0.5l-1.5,3.3c-0.1,0.2-0.3,0.4-0.6,0.4c-0.1,0-0.2,0-0.2,0
				l-3.1-1.2l-4,9.2C466.7-2.3,466.2-2,465.6-2z"/>
			<g>
				<path class="st9" d="M470.9-17.3c0.1,0,0.1,0,0.2,0l4.8,2.1c0.2,0.1,0.3,0.3,0.2,0.6l-1.5,3.3c-0.1,0.2-0.2,0.2-0.4,0.2
					c-0.1,0-0.1,0-0.2,0l-3.3-1.3L466.7-3c-0.2,0.5-0.6,0.7-1.1,0.7c-0.2,0-0.3,0-0.5-0.1h0c-0.6-0.3-0.9-1-0.6-1.6l6-13.1
					C470.6-17.2,470.7-17.3,470.9-17.3 M470.9-17.8C470.9-17.8,470.9-17.8,470.9-17.8c-0.4,0-0.7,0.2-0.8,0.5l-6,13.1
					c-0.2,0.4-0.2,0.9,0,1.3s0.5,0.8,0.9,1c0.2,0.1,0.4,0.1,0.7,0.1c0.7,0,1.3-0.4,1.6-1l3.9-8.9l2.8,1.1c0.1,0,0.2,0.1,0.3,0.1
					c0.4,0,0.7-0.2,0.8-0.5l1.5-3.3c0.1-0.2,0.1-0.5,0-0.7c-0.1-0.2-0.3-0.4-0.5-0.5l-4.8-2.1C471.1-17.8,471-17.8,470.9-17.8
					L470.9-17.8z"/>
			</g>
		</g>
		<path class="st9" d="M458.9-2.6l0,9.8h12.9v-9.5c0.1-0.5,0-2.5,1.4-3.8c0.8-0.9,1.8-1.2,1.8-1.2h-5.6l0.7-1.6c3,0,6.7,0,9.7,0
			c0.5,0,1.6,0.1,2.6,0.8c0.4,0.3,0.6,0.5,0.8,0.8c-1.1,0-1.6,0-2.7,0c-0.3,0-4.5-0.3-6.3,2.3c-0.7,1.1-0.7,2.5-0.8,3.1v9h11.9v0.9
			c0,0.3-0.2,0.5-0.5,0.5h-27c-0.3,0-0.5-0.2-0.5-0.5V-2.6c0-3.4,2.8-6.2,6.2-6.2h2.6l-0.6,1.4h-1.8C461-7.5,458.9-5.3,458.9-2.6z"
			/>
	</g>
</g>
<g>
	<path class="st3" d="M470.8,92c0,0.1,0,0.2,0,0.3c0,0.3,0,0.5-0.1,0.8c-0.2,1.3-0.7,2.5-1.4,3.5c-0.1,0.1-0.2,0.3-0.3,0.4
		c-1.5,2-4,3.4-6.8,3.7h-24.1c0,0,3.5,22.9-9.1,37c-2.4,2.7,2.6,14.1,2.6,14.1l8.8-1.8l-24.9,10.6l-18.2-21.7L408.5,79H429l22.9,3.8
		l2.6,0.4l13.2,2.2C468.1,85.8,470.8,88.3,470.8,92z"/>
	<polygon class="st7" points="373.7,143.3 382.7,130 431.3,168.6 419.7,183.7 	"/>
	<polygon class="st2" points="395.3,225 427.7,179.6 407.3,163.4 373.4,136.4 299.6,225 	"/>
</g>
<circle class="st7" cx="376.8" cy="165.7" r="5.2"/>
<path class="st3" d="M673,130.2c-0.5-0.5-1.6-1.7-2.9-3.2c-2.5-2.8-5.9-5.7-7.9-9c-2.4-3.9-2.2-8.9-4.3-13
	c-2.3-4.6-5.6-9.1-8.6-13.3c-4.3-6-8.1-11.8-13.3-17.1l0,0l-16.3-16.8c-3.1-3.1-6.2-3.1-9.4,0c-0.5,0.5-1,1.1-1.3,1.7
	c-1.2,2.2-0.7,5,1.1,6.8l6.4,6.4c0.7,0.7,0.9,1.8,0.3,2.6c-0.7,1-2.2,1.1-3,0.3l-5.3-5.3l-0.1,0.1c-0.3-0.4-0.6-0.7-0.9-1.1L602,64
	c-3-3-7.8-3.4-11-0.7c-2.6,2.1-3.4,5.5-2.5,8.4c0.2,0.6,0.5,1.1,0.9,1.5l8.8,8.8c0.7,0.7,0.9,1.8,0.3,2.6c-0.7,1-2.2,1.1-3,0.3
	L584,73.7c-3.1-1.9-7.2-1.5-9.9,1.2c-0.8,0.8-1.3,1.6-1.7,2.5c-0.8,2-0.3,4.3,1.2,5.9l7.5,7.5c0.8,0.8,0.8,2,0,2.8
	c-0.8,0.8-2,0.8-2.8,0l-5.1-5c0,0-10.3-10.9-11.3-12.1c-4.7-5.3-9.4-10.6-14.2-15.9c-0.8-0.8-1.5-1.7-2.2-2.5c-0.5-0.5-1-0.8-1.6-1
	c-0.5-0.1-1-0.2-1.6-0.2h-0.1c-0.4,0-0.9,0.1-1.3,0.1c-4,0.5-7.3,3.5-8.2,7.5c-0.1,0.4-0.2,0.9-0.2,1.4V66c0,0.2,0,0.4,0,0.6
	c0,0.8,0.1,1.5,0.6,2.1c1.2,1.6,2.7,3,4,4.5l0.1,0.1c6.9,7.7,13.9,15.4,20.8,23.2c4.9,5.4,9.8,10.8,14.6,16.3
	c6.2,6.5,11.2,12.1,16.3,19.5c-3.3-1.1-7.1-2.4-9.9-4.4c-2.2-1.6-3.5-4.1-5.8-5.8c-2.8-2-7.2-4-10.7-3.8c-1.9,0.1-4.6,1.5-6.2,2.5
	c-6.1,3.9,2.2,7.5,5.5,10.2c3.6,2.8,5.8,6.4,8.8,9.6c3.6,3.8,8.7,7.1,12.9,10.2c10.7,8,26.5,7.7,39.1,10.7c7.7,1.9,14.2,4,20.2-1.7
	c6.6-6.2,14.2-11.2,21-17.2c3.3-2.9,1.7-3.7,4.9-6.7l3.2-2.9c0.3-0.3,1.5-1,1.7-1.5C674,131.1,673.4,130.7,673,130.2z"/>
<polygon class="st7" points="683.9,140.5 675,127.3 626.4,165.9 638,181 "/>
<polygon class="st2" points="760.3,225 684.2,133.7 650.4,160.7 630,176.9 664.3,225 "/>
<circle class="st7" cx="661.1" cy="182.8" r="5.2"/>
</svg>
